<svg width="84" height="84" viewBox="0 0 84 84" fill="none" xmlns="http://www.w3.org/2000/svg">
<g id="Weather / Morning / Haze / 2 ">
<g clip-path="url(#clip0_2_245)">
<g id="Group">
<circle id="Oval" cx="42.233" cy="42" r="42" fill="url(#paint0_linear_2_245)"/>
<circle id="Oval 1" cx="52" cy="20" r="7" fill="#F0FFA8" fill-opacity="0.21386"/>
<path id="Path 55" fill-rule="evenodd" clip-rule="evenodd" d="M-18.9006 48.616C-35.7685 40.8586 -53.5738 64.3681 -53.5738 64.3681L-41.767 83H42L42.3154 66.4805C42.3154 66.4805 39.1941 66.0293 37.9726 65.7123C19.4808 60.9138 -1.80906 56.4762 -18.9006 48.616Z" fill="#249189"/>
<path id="Path 55_2" opacity="0.137416" fill-rule="evenodd" clip-rule="evenodd" d="M43.6542 19.9348C26.0042 19.0853 -1.7662 -4.38858 22.5405 2.28758C59.7437 12.506 111.939 -12.5746 126.977 -1.63993C142.014 9.29475 124.094 5.66207 122.873 5.97904C116.94 7.51858 111.299 11.6888 104.441 10.6112C85.8457 7.6893 83.2944 21.8426 43.6542 19.9348Z" fill="white"/>
<path id="Path 55_3" fill-rule="evenodd" clip-rule="evenodd" d="M61.6457 58.616C96.1218 61.9871 100.96 73.919 100.96 73.919V102.97H-17L-16.4425 75.3204C-16.4425 75.3204 -14.7673 69.2057 -3.37943 68.4821C18.7733 67.0745 49.0054 57.38 61.6457 58.616Z" fill="#235359"/>
<g id="Group 2">
<g id="Group 36">
<path id="Line 8" d="M52.7464 63.6253C52.7464 63.9979 52.4443 64.3 52.0717 64.3C51.699 64.3 51.397 63.9979 51.397 63.6253V61.5852C51.397 61.2126 51.699 60.9105 52.0717 60.9105C52.4443 60.9105 52.7464 61.2126 52.7464 61.5852V63.6253Z" fill="#5C1D1D"/>
<path id="Path" fill-rule="evenodd" clip-rule="evenodd" d="M48.621 48.6878L47.5235 48.078L51.7683 32L57.0967 47.6088L55.5522 48.078L59.9023 61.8469L44.241 62.5832L48.621 48.6878Z" fill="#328282"/>
</g>
<g id="Group 36 Copy">
<path id="Line 8_2" d="M65.8072 59.7909C65.8072 60.0671 65.5834 60.2909 65.3072 60.2909C65.0311 60.2909 64.8072 60.0671 64.8072 59.7909V58.1C64.8072 57.8239 65.0311 57.6 65.3072 57.6C65.5834 57.6 65.8072 57.8239 65.8072 58.1V59.7909Z" fill="#5C1D1D"/>
<path id="Path_2" fill-rule="evenodd" clip-rule="evenodd" d="M62.6174 48.1862L61.8137 47.7435L64.9224 36.0727L68.8247 47.4029L67.6936 47.7435L70.8795 57.7383L59.4096 58.2727L62.6174 48.1862Z" fill="#328282"/>
</g>
<g id="Group 36 Copy 2">
<path id="Line 8_3" d="M77.9518 61.1363C77.9518 61.4125 77.7279 61.6363 77.4518 61.6363C77.1757 61.6363 76.9518 61.4125 76.9518 61.1363V60.1182C76.9518 59.842 77.1757 59.6182 77.4518 59.6182C77.7279 59.6182 77.9518 59.842 77.9518 60.1182V61.1363Z" fill="#5C1D1D"/>
<path id="Path_3" fill-rule="evenodd" clip-rule="evenodd" d="M75.6539 53.5665L75.1339 53.2715L77.1454 45.4909L79.6704 53.0444L78.9385 53.2715L81 59.9346L73.5783 60.2909L75.6539 53.5665Z" fill="#328282"/>
</g>
<g id="Group 36 Copy 3">
<path id="Line 8_4" d="M30.0482 63.9496C30.0482 64.2257 29.8243 64.4496 29.5482 64.4496C29.272 64.4496 29.0482 64.2257 29.0482 63.9496V62.2587C29.0482 61.9825 29.272 61.7587 29.5482 61.7587C29.8243 61.7587 30.0482 61.9825 30.0482 62.2587V63.9496Z" fill="#5C1D1D"/>
<path id="Path_4" fill-rule="evenodd" clip-rule="evenodd" d="M27.453 55.1572L26.8384 54.8084L29.2156 45.6132L32.1998 54.5401L31.3348 54.8084L33.7711 62.683L25 63.1041L27.453 55.1572Z" fill="#328282"/>
</g>
</g>
<path id="Path 55_4" opacity="0.137416" fill-rule="evenodd" clip-rule="evenodd" d="M-25.5744 55.8121C-44.248 54.9133 -73.6289 30.0781 -47.9126 37.1415C-8.55182 47.9524 46.6701 21.4174 62.5801 32.9862C78.4901 44.555 60.1243 41.2292 58.2381 41.047C-5.40619 34.8979 16.3647 57.8305 -25.5744 55.8121Z" fill="white"/>
</g>
</g>
</g>
<defs>
<linearGradient id="paint0_linear_2_245" x1="0.232971" y1="0" x2="0.232971" y2="84" gradientUnits="userSpaceOnUse">
<stop stop-color="#6FA7DE"/>
<stop offset="1" stop-color="#91DDFF"/>
</linearGradient>
<clipPath id="clip0_2_245">
<rect width="84" height="84" rx="42" fill="white"/>
</clipPath>
</defs>
</svg>
