<svg width="84" height="84" viewBox="0 0 84 84" fill="none" xmlns="http://www.w3.org/2000/svg">
<g id="Weather / Morning / Clear / 2 ">
<g clip-path="url(#clip0_2_25)">
<ellipse id="Oval 1" cx="41" cy="29.3494" rx="11" ry="11.1325" fill="#FFD96C"/>
<path id="Path 55" fill-rule="evenodd" clip-rule="evenodd" d="M39.3623 31.3735L100.96 65.7012V95.1023H-17L-16.4425 67.1195L39.3623 31.3735Z" fill="#6EB8AE"/>
<path id="Path 55_2" fill-rule="evenodd" clip-rule="evenodd" d="M38.5147 34.1182L41.9801 34.9763L41.8891 32.6911L60.8087 43.2336L57.5546 43.3704L56.1868 44.3898L48.4928 39.9933L54.4067 45.7166L52.8629 46.8672L53.814 49.484L46.9486 52.6225L39.9737 45.6285L44.4612 46.4564L41.6196 41.9993L48.4928 45.2334L42.6774 39.9933L45.2955 40.8866L38.5147 34.1182Z" fill="url(#paint0_linear_2_25)"/>
<path id="Path 55_3" fill-rule="evenodd" clip-rule="evenodd" d="M61.5775 45.5913L63.8952 44.983L84.4936 56.5072L81.4673 59.9291L78.2722 58.834L80.2867 61.179L75.3045 66.4364L68.0944 63.2379L72.2069 70.7288L59.2336 61.4348L58.8885 55.5282L55.6357 51.0348L58.672 51.8232L57.6339 47.5521L62.2406 47.0573L61.5775 45.5913Z" fill="url(#paint1_linear_2_25)"/>
<path id="Path 55_4" fill-rule="evenodd" clip-rule="evenodd" d="M34.2625 52.2755L40.787 55.7892V53.4227L54.2597 65.4111L52.1275 60.6149L59.9987 63.2379L72.7143 76.6844L66.7402 77.5436L49.6528 67.6771L63.753 81.4408L56 82.988L34.2625 62.4064V58.2781L38.5147 60.6149L34.2625 52.2755Z" fill="url(#paint2_linear_2_25)"/>
<path id="Path 55_5" fill-rule="evenodd" clip-rule="evenodd" d="M12.9406 53.402L12.3449 50.2137L19.0718 52.6225L25.7988 58.1686L19.0825 57.4556L12.9406 53.402Z" fill="url(#paint3_linear_2_25)"/>
<path id="Path 55_6" fill-rule="evenodd" clip-rule="evenodd" d="M16.1502 62.2561L13.9852 58.6575L19.4325 59.9513L18.5564 61.4105L16.1502 62.2561Z" fill="url(#paint4_linear_2_25)"/>
<path id="Path 55_7" fill-rule="evenodd" clip-rule="evenodd" d="M30.165 49.1408L28.2747 45.203L33.4472 46.8359H30.165V49.1408Z" fill="url(#paint5_linear_2_25)"/>
<path id="Path 55_8" fill-rule="evenodd" clip-rule="evenodd" d="M18.7409 47.7241H20.8748L19.8896 45.6285L22.7733 46.9052L25.7988 49.4097L21.9084 50.5739L18.7409 47.7241Z" fill="url(#paint6_linear_2_25)"/>
</g>
</g>
<defs>
<linearGradient id="paint0_linear_2_25" x1="31.0235" y1="39.1426" x2="43.5173" y2="56.9153" gradientUnits="userSpaceOnUse">
<stop stop-color="#AFF3E9"/>
<stop offset="1" stop-color="#FFF9ED"/>
</linearGradient>
<linearGradient id="paint1_linear_2_25" x1="45.9389" y1="53.3166" x2="62.066" y2="76.3056" gradientUnits="userSpaceOnUse">
<stop stop-color="#AFF3E9"/>
<stop offset="1" stop-color="#FFF9ED"/>
</linearGradient>
<linearGradient id="paint2_linear_2_25" x1="23.0221" y1="59.7581" x2="35.9428" y2="83.5368" gradientUnits="userSpaceOnUse">
<stop stop-color="#AFF3E9"/>
<stop offset="1" stop-color="#FFF9ED"/>
</linearGradient>
<linearGradient id="paint3_linear_2_25" x1="7.82408" y1="52.7886" x2="11.8758" y2="61.5036" gradientUnits="userSpaceOnUse">
<stop stop-color="#AFF3E9"/>
<stop offset="1" stop-color="#FFF9ED"/>
</linearGradient>
<linearGradient id="paint4_linear_2_25" x1="12.1549" y1="59.8223" x2="14.1162" y2="63.5981" gradientUnits="userSpaceOnUse">
<stop stop-color="#AFF3E9"/>
<stop offset="1" stop-color="#FFF9ED"/>
</linearGradient>
<linearGradient id="paint5_linear_2_25" x1="26.5366" y1="46.4776" x2="28.8487" y2="50.3401" gradientUnits="userSpaceOnUse">
<stop stop-color="#AFF3E9"/>
<stop offset="1" stop-color="#FFF9ED"/>
</linearGradient>
<linearGradient id="paint6_linear_2_25" x1="16.3693" y1="47.2293" x2="19.1542" y2="52.2839" gradientUnits="userSpaceOnUse">
<stop stop-color="#AFF3E9"/>
<stop offset="1" stop-color="#FFF9ED"/>
</linearGradient>
<clipPath id="clip0_2_25">
<rect width="84" height="84" rx="42" fill="white"/>
</clipPath>
</defs>
</svg>
