<svg width="84" height="84" viewBox="0 0 84 84" fill="none" xmlns="http://www.w3.org/2000/svg">
<g id="Weather / Night / Cloudy ">
<g clip-path="url(#clip0_2_487)">
<g id="Group">
<circle id="Oval" cx="42" cy="42" r="42" fill="url(#paint0_linear_2_487)"/>
<path id="Oval 4" opacity="0.9" fill-rule="evenodd" clip-rule="evenodd" d="M22.1266 23.8693H30.8984C33.6006 23.8693 35.7912 21.667 35.7912 18.9504C35.7912 16.2338 33.6006 14.0315 30.8984 14.0315C30.0829 14.0315 29.314 14.232 28.6379 14.5867C27.6964 11.8415 25.1041 9.86932 22.0536 9.86932C18.208 9.86932 15.0906 13.0033 15.0906 16.8693C15.0906 16.9486 15.0919 17.0275 15.0945 17.1061C13.972 17.7124 13.2088 18.9039 13.2088 20.2747C13.2088 22.26 14.8096 23.8693 16.7843 23.8693H22.0536C22.0645 23.8693 22.1266 23.8693 22.1266 23.8693H22.0536H22.1266Z" fill="#E9E9F1"/>
<g id="Group_2">
<g id="Fill 6">
<path fill-rule="evenodd" clip-rule="evenodd" d="M42.4522 82.4344C42.4522 86.6223 39.0545 90.0172 34.8629 90.0172C30.6714 90.0172 27.2737 86.6223 27.2737 82.4344C27.2737 78.2465 30.6714 74.8517 34.8629 74.8517C39.0545 74.8517 42.4522 78.2465 42.4522 82.4344Z" fill="#9AD190"/>
<path fill-rule="evenodd" clip-rule="evenodd" d="M42.4522 82.4344C42.4522 86.6223 39.0545 90.0172 34.8629 90.0172C30.6714 90.0172 27.2737 86.6223 27.2737 82.4344C27.2737 78.2465 30.6714 74.8517 34.8629 74.8517C39.0545 74.8517 42.4522 78.2465 42.4522 82.4344Z" fill="#8DBBA5"/>
</g>
<g id="Fill 8">
<path fill-rule="evenodd" clip-rule="evenodd" d="M46.9165 73.8111C46.9165 77.999 43.5187 81.3938 39.3272 81.3938C35.1357 81.3938 31.7379 77.999 31.7379 73.8111C31.7379 69.6232 35.1357 66.2283 39.3272 66.2283C43.5187 66.2283 46.9165 69.6232 46.9165 73.8111Z" fill="#9AD190"/>
<path fill-rule="evenodd" clip-rule="evenodd" d="M46.9165 73.8111C46.9165 77.999 43.5187 81.3938 39.3272 81.3938C35.1357 81.3938 31.7379 77.999 31.7379 73.8111C31.7379 69.6232 35.1357 66.2283 39.3272 66.2283C43.5187 66.2283 46.9165 69.6232 46.9165 73.8111Z" fill="#8DBBA5"/>
</g>
<path id="Fill 9" fill-rule="evenodd" clip-rule="evenodd" d="M62.6902 97.1351H109.565V49.3447H62.6902V97.1351Z" fill="#D4A3C6"/>
<path id="Fill 10" fill-rule="evenodd" clip-rule="evenodd" d="M103.353 38.2761H48.1071V54.9657H113.732L103.353 38.2761Z" fill="#98567D"/>
<path id="Fill 11" fill-rule="evenodd" clip-rule="evenodd" d="M63.1183 97.3024H32.7611V49.512L48.237 38.5736L63.1183 49.512V97.3024Z" fill="#DCAFD2"/>
<path id="Fill 12" fill-rule="evenodd" clip-rule="evenodd" d="M30.5812 54.4889L28.9143 52.3943L48.2902 37L66.0728 51.6663L64.3678 53.7302L48.2589 40.4443L30.5812 54.4889Z" fill="#76486D"/>
<path id="Fill 13" fill-rule="evenodd" clip-rule="evenodd" d="M108.252 79.1078H65.3821C65.0223 79.1078 64.8103 78.7046 65.0147 78.4084L70.7893 70.0451C70.8723 69.9247 71.0098 69.8524 71.1567 69.8524H103.174C103.33 69.8524 103.475 69.9336 103.556 70.067L108.633 78.4303C108.814 78.7278 108.6 79.1078 108.252 79.1078Z" fill="#98567D"/>
<path id="Fill 14" fill-rule="evenodd" clip-rule="evenodd" d="M38.0625 97.3768H57.9286V77.974H38.0625V97.3768Z" fill="#8C736A"/>
<path id="Fill 15" fill-rule="evenodd" clip-rule="evenodd" d="M58.5982 97.3768H57.2589V78.643H38.7321V97.3768H37.3929V77.974C37.3929 77.6046 37.6924 77.3049 38.0625 77.3049H57.9286C58.2982 77.3049 58.5982 77.6046 58.5982 77.974V97.3768Z" fill="#DDDEFE"/>
<path id="Fill 16" fill-rule="evenodd" clip-rule="evenodd" d="M71.2281 67.1204H78.1723V58.7401H71.2281V67.1204Z" fill="#8DA6DC"/>
<path id="Fill 17" fill-rule="evenodd" clip-rule="evenodd" d="M71.8978 66.4513H77.5027V59.4097H71.8978V66.4513ZM78.1723 67.7895H71.2281C70.8585 67.7895 70.5585 67.4897 70.5585 67.1204V58.7406C70.5585 58.3713 70.8585 58.0715 71.2281 58.0715H78.1723C78.5424 58.0715 78.842 58.3713 78.842 58.7406V67.1204C78.842 67.4897 78.5424 67.7895 78.1723 67.7895Z" fill="#DDDEFE"/>
<path id="Fill 18" fill-rule="evenodd" clip-rule="evenodd" d="M70.8375 97.4513H78.3152V81.9139H70.8375V97.4513Z" fill="#9E764F"/>
<path id="Fill 19" fill-rule="evenodd" clip-rule="evenodd" d="M78.9848 97.4513H77.6455V82.5834H71.5071V97.4513H70.1678V81.9143C70.1678 81.545 70.4678 81.2452 70.8375 81.2452H78.3152C78.6853 81.2452 78.9848 81.545 78.9848 81.9143V97.4513Z" fill="#FCFCFC"/>
<path id="Fill 20" fill-rule="evenodd" clip-rule="evenodd" d="M53.6705 57.3721C53.4955 54.1727 50.8513 51.6293 47.6049 51.6293C44.3585 51.6293 41.7143 54.1727 41.5393 57.3721H41.5223V68.5701H53.6875V57.3721H53.6705Z" fill="#8DA6DC"/>
<path id="Fill 21" fill-rule="evenodd" clip-rule="evenodd" d="M42.1919 67.901H53.0178V57.5198L53.0018 57.4087C52.8451 54.5433 50.4745 52.2984 47.6049 52.2984C44.7352 52.2984 42.3647 54.5433 42.2076 57.4087L42.1919 57.5225V67.901ZM53.6875 69.2391H41.5223C41.1522 69.2391 40.8527 68.9394 40.8527 68.5701V57.3721C40.8527 57.3052 40.8625 57.2401 40.8808 57.179C41.1527 53.6793 44.0763 50.9603 47.6049 50.9603C51.1335 50.9603 54.0567 53.6793 54.3286 57.179C54.3469 57.2401 54.3571 57.3052 54.3571 57.3721V68.5701C54.3571 68.9394 54.0571 69.2391 53.6875 69.2391Z" fill="#DDDEFE"/>
<path id="Fill 22" fill-rule="evenodd" clip-rule="evenodd" d="M46.9352 68.31H48.2745V51.5834H46.9352V68.31Z" fill="#DDDEFE"/>
<path id="Fill 23" fill-rule="evenodd" clip-rule="evenodd" d="M41.6339 58.1251H53.6129V56.7869H41.6339V58.1251Z" fill="#DDDEFE"/>
<path id="Fill 24" fill-rule="evenodd" clip-rule="evenodd" d="M72.2143 90.2401H76.9388V83.7725H72.2143V90.2401Z" fill="#9CC1DC"/>
<g id="Fill 25">
<path fill-rule="evenodd" clip-rule="evenodd" d="M39.625 97.3398H41.0629V78.6453H39.625V97.3398Z" fill="#B99068"/>
<path fill-rule="evenodd" clip-rule="evenodd" d="M39.625 97.3398H41.0629V78.6453H39.625V97.3398Z" fill="#A78885"/>
</g>
<g id="Fill 26">
<path fill-rule="evenodd" clip-rule="evenodd" d="M42.1817 97.3398H43.6196V78.6453H42.1817V97.3398Z" fill="#B99068"/>
<path fill-rule="evenodd" clip-rule="evenodd" d="M42.1817 97.3398H43.6196V78.6453H42.1817V97.3398Z" fill="#A78885"/>
</g>
<g id="Fill 27">
<path fill-rule="evenodd" clip-rule="evenodd" d="M44.7384 97.3398H46.1763V78.6453H44.7384V97.3398Z" fill="#B99068"/>
<path fill-rule="evenodd" clip-rule="evenodd" d="M44.7384 97.3398H46.1763V78.6453H44.7384V97.3398Z" fill="#A78885"/>
</g>
<g id="Fill 28">
<path fill-rule="evenodd" clip-rule="evenodd" d="M47.2951 97.3398H48.733V78.6453H47.2951V97.3398Z" fill="#B99068"/>
<path fill-rule="evenodd" clip-rule="evenodd" d="M47.2951 97.3398H48.733V78.6453H47.2951V97.3398Z" fill="#A78885"/>
</g>
<g id="Fill 29">
<path fill-rule="evenodd" clip-rule="evenodd" d="M49.8513 97.3398H51.2897V78.6453H49.8513V97.3398Z" fill="#B99068"/>
<path fill-rule="evenodd" clip-rule="evenodd" d="M49.8513 97.3398H51.2897V78.6453H49.8513V97.3398Z" fill="#A78885"/>
</g>
<g id="Fill 30">
<path fill-rule="evenodd" clip-rule="evenodd" d="M52.4085 97.3398H53.8469V78.6453H52.4085V97.3398Z" fill="#B99068"/>
<path fill-rule="evenodd" clip-rule="evenodd" d="M52.4085 97.3398H53.8469V78.6453H52.4085V97.3398Z" fill="#A78885"/>
</g>
<g id="Fill 31">
<path fill-rule="evenodd" clip-rule="evenodd" d="M54.9652 97.3398H56.4036V78.6453H54.9652V97.3398Z" fill="#B99068"/>
<path fill-rule="evenodd" clip-rule="evenodd" d="M54.9652 97.3398H56.4036V78.6453H54.9652V97.3398Z" fill="#A78885"/>
</g>
<path id="Fill 36" fill-rule="evenodd" clip-rule="evenodd" d="M65.1482 80.3715H108.493V79.0333H65.1482V80.3715Z" fill="#32424F"/>
<path id="Fill 37" fill-rule="evenodd" clip-rule="evenodd" d="M63.1183 56.2111H113.721V54.873H63.1183V56.2111Z" fill="#6C3D62"/>
<path id="Fill 41" fill-rule="evenodd" clip-rule="evenodd" d="M71.2839 62.697H78.241V61.3589H71.2839V62.697Z" fill="#DDDEFE"/>
<path id="Fill 42" fill-rule="evenodd" clip-rule="evenodd" d="M103.762 77.5279H78.4643C78.0942 77.5279 77.7946 77.2282 77.7946 76.8589C77.7946 76.4895 78.0942 76.1898 78.4643 76.1898H103.762C104.132 76.1898 104.431 76.4895 104.431 76.8589C104.431 77.2282 104.132 77.5279 103.762 77.5279Z" fill="#32424F"/>
<path id="Fill 43" fill-rule="evenodd" clip-rule="evenodd" d="M89.9223 74.8517H70.354C69.9844 74.8517 69.6844 74.5519 69.6844 74.1826C69.6844 73.8133 69.9844 73.5135 70.354 73.5135H89.9223C90.2924 73.5135 90.5919 73.8133 90.5919 74.1826C90.5919 74.5519 90.2924 74.8517 89.9223 74.8517Z" fill="#32424F"/>
<path id="Fill 44" fill-rule="evenodd" clip-rule="evenodd" d="M93.1964 72.3244H77.3482C76.9781 72.3244 76.6786 72.0247 76.6786 71.6553C76.6786 71.286 76.9781 70.9863 77.3482 70.9863H93.1964C93.5661 70.9863 93.8661 71.286 93.8661 71.6553C93.8661 72.0247 93.5661 72.3244 93.1964 72.3244Z" fill="#32424F"/>
<path id="Fill 47" fill-rule="evenodd" clip-rule="evenodd" d="M75.3393 77.3794H68.7169C68.3473 77.3794 68.0473 77.0796 68.0473 76.7103C68.0473 76.341 68.3473 76.0413 68.7169 76.0413H75.3393C75.7089 76.0413 76.0089 76.341 76.0089 76.7103C76.0089 77.0796 75.7089 77.3794 75.3393 77.3794Z" fill="#32424F"/>
<path id="Fill 48" fill-rule="evenodd" clip-rule="evenodd" d="M92.4522 52.6985H69.9076C69.5379 52.6985 69.2379 52.3987 69.2379 52.0294C69.2379 51.6601 69.5379 51.3604 69.9076 51.3604H92.4522C92.8223 51.3604 93.1219 51.6601 93.1219 52.0294C93.1219 52.3987 92.8223 52.6985 92.4522 52.6985Z" fill="#6C3D62"/>
<path id="Fill 50" fill-rule="evenodd" clip-rule="evenodd" d="M96.3955 49.5017H67.0058C66.6362 49.5017 66.3362 49.202 66.3362 48.8326C66.3362 48.4633 66.6362 48.1636 67.0058 48.1636H96.3955C96.7656 48.1636 97.0652 48.4633 97.0652 48.8326C97.0652 49.202 96.7656 49.5017 96.3955 49.5017Z" fill="#6C3D62"/>
<path id="Fill 52" fill-rule="evenodd" clip-rule="evenodd" d="M105.92 46.1564H67.9732C67.6031 46.1564 67.3036 45.8566 67.3036 45.4873C67.3036 45.118 67.6031 44.8182 67.9732 44.8182H105.92C106.289 44.8182 106.589 45.118 106.589 45.4873C106.589 45.8566 106.289 46.1564 105.92 46.1564Z" fill="#6C3D62"/>
<path id="Fill 53" fill-rule="evenodd" clip-rule="evenodd" d="M82.0357 43.3316H58.4491C58.0794 43.3316 57.7794 43.0318 57.7794 42.6625C57.7794 42.2932 58.0794 41.9934 58.4491 41.9934H82.0357C82.4053 41.9934 82.7053 42.2932 82.7053 42.6625C82.7053 43.0318 82.4053 43.3316 82.0357 43.3316Z" fill="#6C3D62"/>
<path id="Fill 56" fill-rule="evenodd" clip-rule="evenodd" d="M101.381 40.7294H55.6964C55.3263 40.7294 55.0268 40.4296 55.0268 40.0603C55.0268 39.691 55.3263 39.3912 55.6964 39.3912H101.381C101.751 39.3912 102.05 39.691 102.05 40.0603C102.05 40.4296 101.751 40.7294 101.381 40.7294Z" fill="#6C3D62"/>
</g>
</g>
<path id="Oval 4_2" opacity="0.9" fill-rule="evenodd" clip-rule="evenodd" d="M66.0429 32.8693H56.6446C53.7493 32.8693 51.4023 30.5097 51.4023 27.5991C51.4023 24.6884 53.7493 22.3288 56.6446 22.3288C57.5183 22.3288 58.3421 22.5437 59.0665 22.9237C60.0752 19.9824 62.8528 17.8693 66.1212 17.8693C70.2414 17.8693 73.5815 21.2272 73.5815 25.3693C73.5815 25.4542 73.5801 25.5388 73.5773 25.623C74.78 26.2726 75.5978 27.5493 75.5978 29.018C75.5978 31.145 73.8826 32.8693 71.7668 32.8693H66.1212C66.1094 32.8693 66.0429 32.8693 66.0429 32.8693H66.1212H66.0429Z" fill="#E9E9F1"/>
</g>
</g>
<defs>
<linearGradient id="paint0_linear_2_487" x1="-18.8033" y1="37.903" x2="45.0005" y2="115.902" gradientUnits="userSpaceOnUse">
<stop stop-color="#445FE2"/>
<stop offset="1" stop-color="#5385AC"/>
</linearGradient>
<clipPath id="clip0_2_487">
<rect width="84" height="84" rx="42" fill="white"/>
</clipPath>
</defs>
</svg>
