<svg width="84" height="84" viewBox="0 0 84 84" fill="none" xmlns="http://www.w3.org/2000/svg">
<g id="Weather / Night / Foggy  ">
<g clip-path="url(#clip0_2_11)">
<ellipse id="Oval" cx="41.9845" cy="42" rx="41.7515" ry="42" fill="url(#paint0_linear_2_11)"/>
<path id="Path 51" fill-rule="evenodd" clip-rule="evenodd" d="M89.7424 51.5418C89.7424 51.5418 77.8305 44.0008 68.8332 44.0008C56.9318 44.0008 48.9745 54.2855 39.3475 54.2855C28.1276 54.2855 26.7157 51.3136 20.424 51.3136C11.5317 51.3136 -0.204842 56.8863 -6.39439 54.875C-11.3892 53.2519 -17.4024 49.9737 -17.4024 49.9737V77.5009L89.7424 79.1554V51.5418Z" fill="#5F83ED"/>
<path id="Path 51_2" fill-rule="evenodd" clip-rule="evenodd" d="M-15.6365 69.9332C-15.6365 69.9332 -15.0933 52.6148 -2.77952 49.9069C7.98668 48.2965 16.2872 60.7957 25.9142 60.7957C37.1341 60.7957 42.4218 53.5418 53.3152 53.5418C61.2603 53.5418 69.0186 59.8484 79.838 57.6623C103.87 52.8067 91.5084 51.9736 91.5084 51.9736V79.5009L-15.6365 81.1554V69.9332Z" fill="#5462DC"/>
<path id="Path 53" fill-rule="evenodd" clip-rule="evenodd" d="M0 68.0033C0 68.0033 5.16911 61.0561 9.22579 60.3567C13.2825 59.6573 15.5277 66.4294 15.5277 66.4294C15.5277 66.4294 17.427 66.1331 18.4587 66.4294C19.4903 66.7257 20.3071 68.0033 20.3071 68.0033C20.3071 68.0033 21.6211 63.9224 27.077 63.9224C32.533 63.9224 35.3049 69.4356 35.3049 69.4356C35.3049 69.4356 37.1209 68.0033 39.0122 68.0033C40.9035 68.0033 43.0443 69.4356 43.0443 69.4356C43.0443 69.4356 44.3803 63.9224 50.0173 63.9224C55.6543 63.9224 58.0589 68.601 58.0589 68.601C58.0589 68.601 60.3365 67.164 62.5495 67.164C64.7626 67.164 67.4035 68.601 67.4035 68.601C67.4035 68.601 68.1445 64.062 71.441 61.3867C74.7375 58.7114 81.9149 60.3567 81.9149 60.3567L85.8409 62.4234V84H0V68.0033Z" fill="url(#paint1_linear_2_11)"/>
</g>
</g>
<defs>
<linearGradient id="paint0_linear_2_11" x1="0.232971" y1="0" x2="0.232971" y2="84" gradientUnits="userSpaceOnUse">
<stop stop-color="#195BD1"/>
<stop offset="1" stop-color="#6778FA"/>
</linearGradient>
<linearGradient id="paint1_linear_2_11" x1="-11.6906" y1="59.7302" x2="-11.6906" y2="90.6106" gradientUnits="userSpaceOnUse">
<stop stop-color="#2E63DC"/>
<stop offset="1" stop-color="#431C71"/>
</linearGradient>
<clipPath id="clip0_2_11">
<rect width="84" height="84" rx="42" fill="white"/>
</clipPath>
</defs>
</svg>
