<svg width="84" height="84" viewBox="0 0 84 84" fill="none" xmlns="http://www.w3.org/2000/svg">
<g id="Weather / Morning / Cold / Cloudy / 2 ">
<g clip-path="url(#clip0_2_231)">
<rect width="84" height="84" rx="42" fill="url(#paint0_linear_2_231)"/>
<path id="Oval 4" opacity="0.9" d="M25.6624 26.8693H36.15C39.3809 26.8693 42 24.2362 42 20.9882C42 17.7401 39.3809 15.107 36.15 15.107C35.175 15.107 34.2558 15.3468 33.4474 15.7709C32.3217 12.4886 29.2223 10.1307 25.575 10.1307C20.9772 10.1307 17.25 13.8778 17.25 18.5C17.25 18.5947 17.2516 18.6891 17.2547 18.7831C15.9125 19.508 15 20.9326 15 22.5716C15 24.9451 16.914 26.8693 19.275 26.8693H25.575C25.5881 26.8693 25.6624 26.8693 25.6624 26.8693H25.575H25.6624Z" fill="url(#paint1_linear_2_231)"/>
<path id="Path 55" fill-rule="evenodd" clip-rule="evenodd" d="M23.0994 49.616C6.23148 41.8586 -11.5738 65.3681 -11.5738 65.3681L0.232971 84H84L84.3154 67.4805C84.3154 67.4805 81.1941 67.0293 79.9726 66.7123C61.4808 61.9138 40.1909 57.4762 23.0994 49.616Z" fill="url(#paint2_linear_2_231)"/>
<path id="Path 55_2" fill-rule="evenodd" clip-rule="evenodd" d="M61.6457 60.616C91.3217 60.2617 100.96 75.919 100.96 75.919V104.97H-17L-16.4425 77.3204C-16.4425 77.3204 11.4538 79.7944 20.9876 77.3204C39.4795 72.5219 48.5919 60.7718 61.6457 60.616Z" fill="url(#paint3_linear_2_231)"/>
<ellipse id="Oval" opacity="0.9" cx="57.5" cy="54.5" rx="4.5" ry="9.5" fill="#7AB8FB"/>
<path id="Line" d="M57.5 60.6081V69.0232" stroke="#406689"/>
<ellipse id="Oval_2" opacity="0.9" cx="20.5" cy="52.6667" rx="3.5" ry="6.5" fill="#8FB6FF"/>
<path id="Line_2" d="M20.5 56.5923V62.4829" stroke="#80A1BD"/>
<path id="Oval 4_2" opacity="0.9" d="M73.4986 38.2179H65.9151C63.5789 38.2179 61.685 36.3302 61.685 34.0016C61.685 31.6731 63.5789 29.7854 65.9151 29.7854C66.6201 29.7854 67.2848 29.9573 67.8694 30.2614C68.6833 27.9083 70.9245 26.2179 73.5618 26.2179C76.8864 26.2179 79.5815 28.9041 79.5815 32.2179C79.5815 32.2858 79.5804 32.3534 79.5781 32.4208C80.5486 32.9405 81.2085 33.9618 81.2085 35.1368C81.2085 36.8384 79.8245 38.2179 78.1172 38.2179H73.5618C73.5523 38.2179 73.4986 38.2179 73.4986 38.2179H73.5618H73.4986Z" fill="url(#paint4_linear_2_231)"/>
</g>
</g>
<defs>
<linearGradient id="paint0_linear_2_231" x1="0" y1="0" x2="0" y2="84" gradientUnits="userSpaceOnUse">
<stop stop-color="#9EBFFF"/>
<stop offset="0.369792" stop-color="#A8D0FF"/>
<stop offset="1" stop-color="#B1E7FF"/>
</linearGradient>
<linearGradient id="paint1_linear_2_231" x1="42" y1="10.1307" x2="42" y2="26.8693" gradientUnits="userSpaceOnUse">
<stop stop-color="white"/>
<stop offset="1" stop-color="white" stop-opacity="0.01"/>
</linearGradient>
<linearGradient id="paint2_linear_2_231" x1="84.3154" y1="47.6913" x2="84.3154" y2="84" gradientUnits="userSpaceOnUse">
<stop stop-color="#8CC7FE"/>
<stop offset="1" stop-color="#A9D4FF"/>
</linearGradient>
<linearGradient id="paint3_linear_2_231" x1="-17" y1="60.6081" x2="-17" y2="104.97" gradientUnits="userSpaceOnUse">
<stop stop-color="#8FC0FD"/>
<stop offset="1" stop-color="#91DDFF"/>
</linearGradient>
<linearGradient id="paint4_linear_2_231" x1="61.685" y1="26.2179" x2="61.685" y2="38.2179" gradientUnits="userSpaceOnUse">
<stop stop-color="white"/>
<stop offset="1" stop-color="white" stop-opacity="0.01"/>
</linearGradient>
<clipPath id="clip0_2_231">
<rect width="84" height="84" rx="42" fill="white"/>
</clipPath>
</defs>
</svg>
