<svg width="84" height="84" viewBox="0 0 84 84" fill="none" xmlns="http://www.w3.org/2000/svg">
<g id="Weather / Night / Cold / Snow ">
<g clip-path="url(#clip0_2_428)">
<rect width="84" height="84" rx="42" fill="url(#paint0_linear_2_428)"/>
<path id="Oval 4" opacity="0.6" d="M64.3785 19.2179H59.5185C58.0214 19.2179 56.8076 17.9594 56.8076 16.4071C56.8076 14.8547 58.0214 13.5962 59.5185 13.5962C59.9703 13.5962 60.3963 13.7108 60.7709 13.9135C61.2926 12.3448 62.7289 11.2179 64.419 11.2179C66.5496 11.2179 68.2768 13.0087 68.2768 15.2179C68.2768 15.2631 68.2761 15.3082 68.2747 15.3532C68.8966 15.6996 69.3195 16.3805 69.3195 17.1638C69.3195 18.2982 68.4325 19.2179 67.3384 19.2179H64.419C64.4129 19.2179 64.3785 19.2179 64.3785 19.2179H64.419H64.3785Z" fill="url(#paint1_linear_2_428)"/>
<path id="Path 55" fill-rule="evenodd" clip-rule="evenodd" d="M39.3623 41L100.96 74.919V103.97H-17L-16.4425 76.3204L39.3623 41Z" fill="#2B1685"/>
<path id="Path 55_2" fill-rule="evenodd" clip-rule="evenodd" d="M38.5147 43.712L41.9801 44.56L41.7128 42.3099L60.7908 52.8541H57.5546L56.1868 53.8614L48.4928 49.5172L54.4067 55.1723L52.8629 56.3093L53.814 58.8949L46.9486 61.9961L39.9737 55.0853L44.4612 55.9033L41.6196 51.4993L48.4928 54.6949L42.6774 49.5172L45.2955 50.3998L38.5147 43.712Z" fill="url(#paint2_linear_2_428)"/>
<path id="Path 55_3" fill-rule="evenodd" clip-rule="evenodd" d="M61.5775 55.0485L65.8703 53.438L84.3662 66.197L81.4673 69.2157L78.2722 68.1336L80.2867 70.4507L75.3046 75.6455L68.0944 72.4851L72.2069 79.8868L59.2336 70.7034L58.8885 64.8672L55.6357 60.4273L58.672 61.2062L57.6339 56.986L62.2406 56.4971L61.5775 55.0485Z" fill="url(#paint3_linear_2_428)"/>
<path id="Path 55_4" fill-rule="evenodd" clip-rule="evenodd" d="M34.2625 61.6532L40.787 65.125V62.7868L54.2597 74.6324L52.1275 69.8933L59.9987 72.4851L67.7143 81.7714L61.7402 82.6204L49.6528 76.8715L55.753 83.4713L48.5514 84.4947L34.2625 71.6635V67.5843L38.5147 69.8933L34.2625 61.6532Z" fill="url(#paint4_linear_2_428)"/>
<path id="Path 55_5" fill-rule="evenodd" clip-rule="evenodd" d="M12.9406 62.7663L12.3449 59.616L19.0718 61.9961L25.7988 67.4762L19.0825 66.7716L12.9406 62.7663Z" fill="url(#paint5_linear_2_428)"/>
<path id="Path 55_6" fill-rule="evenodd" clip-rule="evenodd" d="M16.1502 71.515L13.9852 67.9592L19.4325 69.2376L18.5564 70.6795L16.1502 71.515Z" fill="url(#paint6_linear_2_428)"/>
<path id="Path 55_7" fill-rule="evenodd" clip-rule="evenodd" d="M18.7409 57.156H20.8747L19.8896 55.0853L22.7733 56.3468L25.7988 58.8215L21.9084 59.9718L18.7409 57.156Z" fill="url(#paint7_linear_2_428)"/>
<path id="Oval 4_2" opacity="0.5" d="M14.8331 30H21.5542C23.6248 30 25.3033 28.2696 25.3033 26.1351C25.3033 24.0006 23.6248 22.2703 21.5542 22.2703C20.9294 22.2703 20.3403 22.4278 19.8222 22.7065C19.1008 20.5496 17.1145 19 14.7771 19C11.8306 19 9.44194 21.4624 9.44194 24.5C9.44194 24.5623 9.44294 24.6243 9.44493 24.686C8.58481 25.1624 8 26.0986 8 27.1757C8 28.7355 9.2266 30 10.7397 30H14.7771C14.7855 30 14.8331 30 14.8331 30H14.7771H14.8331Z" fill="url(#paint8_linear_2_428)"/>
<circle id="Oval" cx="70" cy="32" r="1" fill="#E0E0F9"/>
<circle id="Oval_2" opacity="0.8" cx="38" cy="61" r="1" fill="#E0E0F9"/>
<circle id="Oval_3" opacity="0.9" cx="54" cy="17" r="1" fill="#E0E0F9"/>
<circle id="Oval_4" opacity="0.7" cx="58" cy="44" r="1" fill="#E0E0F9"/>
<circle id="Oval_5" opacity="0.7" cx="53" cy="68" r="1" fill="#E0E0F9"/>
<circle id="Oval_6" cx="40.5" cy="46.5" r="0.5" fill="#E0E0F9"/>
<circle id="Oval_7" cx="32.5" cy="48.5" r="0.5" fill="#E0E0F9"/>
<circle id="Oval_8" cx="22.5" cy="48.5" r="0.5" fill="#E0E0F9"/>
<circle id="Oval Copy" cx="15.5" cy="32.5" r="0.5" fill="#E0E0F9"/>
<circle id="Oval_9" cx="26.5" cy="25.5" r="0.5" fill="#E0E0F9"/>
<circle id="Oval_10" cx="0.5" cy="0.5" r="0.5" transform="matrix(-1 0 0 1 68 62)" fill="#E0E0F9"/>
<circle id="Oval_11" cx="0.5" cy="0.5" r="0.5" transform="matrix(-1 0 0 1 71 55)" fill="#E0E0F9"/>
<circle id="Oval_12" cx="0.5" cy="0.5" r="0.5" transform="matrix(-1 0 0 1 47 61)" fill="#E0E0F9"/>
<circle id="Oval_13" cx="0.5" cy="0.5" r="0.5" transform="matrix(-1 0 0 1 50 50)" fill="#E0E0F9"/>
<circle id="Oval_14" cx="0.5" cy="0.5" r="0.5" transform="matrix(-1 0 0 1 43 38)" fill="#E0E0F9"/>
<circle id="Oval_15" cx="0.5" cy="0.5" r="0.5" transform="matrix(-1 0 0 1 52 41)" fill="#E0E0F9"/>
<circle id="Oval_16" cx="0.5" cy="0.5" r="0.5" transform="matrix(-1 0 0 1 60 24)" fill="#E0E0F9"/>
<circle id="Oval_17" cx="32.5119" cy="67.7751" r="0.5" transform="rotate(-50 32.5119 67.7751)" fill="#E0E0F9"/>
<circle id="Oval_18" cx="25.5146" cy="64.4885" r="0.5" transform="rotate(-50 25.5146 64.4885)" fill="#E0E0F9"/>
<circle id="Oval_19" cx="17.7044" cy="64.462" r="0.5" transform="rotate(-50 17.7044 64.462)" fill="#E0E0F9"/>
<circle id="Oval_20" cx="0.5" cy="0.5" r="0.5" transform="matrix(-1 0 0 1 77 59)" fill="#E0E0F9"/>
<circle id="Oval_21" cx="0.5" cy="0.5" r="0.5" transform="matrix(-1 0 0 1 75 54)" fill="#E0E0F9"/>
<circle id="Oval_22" cx="0.5" cy="0.5" r="0.5" transform="matrix(-1 0 0 1 68 42)" fill="#E0E0F9"/>
<circle id="Oval_23" cx="0.5" cy="0.5" r="0.5" transform="matrix(-1 0 0 1 61 50)" fill="#E0E0F9"/>
<circle id="Oval_24" cx="0.5" cy="0.5" r="0.5" transform="matrix(-1 0 0 1 59 33)" fill="#E0E0F9"/>
<circle id="Oval_25" cx="0.5" cy="0.5" r="0.5" transform="matrix(-1 0 0 1 11 60)" fill="#E0E0F9"/>
<circle id="Oval_26" cx="0.5" cy="0.5" r="0.5" transform="matrix(-1 0 0 1 14 49)" fill="#E0E0F9"/>
<circle id="Oval_27" cx="0.5" cy="0.5" r="0.5" transform="matrix(-1 0 0 1 9 43)" fill="#E0E0F9"/>
<circle id="Oval_28" cx="0.5" cy="0.5" r="0.5" transform="matrix(-1 0 0 1 3 35)" fill="#E0E0F9"/>
<circle id="Oval_29" cx="0.5" cy="0.5" r="0.5" transform="matrix(-1 0 0 1 36 56)" fill="#E0E0F9"/>
<circle id="Oval_30" cx="0.5" cy="0.5" r="0.5" transform="matrix(-1 0 0 1 27 39)" fill="#E0E0F9"/>
<circle id="Oval_31" cx="0.5" cy="0.5" r="0.5" transform="matrix(0 1 1 0 50 25)" fill="#E0E0F9"/>
<circle id="Oval_32" cx="0.5" cy="0.5" r="0.5" transform="matrix(0 1 1 0 33 34)" fill="#E0E0F9"/>
<circle id="Oval_33" cx="10.5" cy="17.5" r="0.5" transform="rotate(90 10.5 17.5)" fill="#E0E0F9"/>
<circle id="Oval_34" cx="26.5" cy="25.5" r="0.5" transform="rotate(90 26.5 25.5)" fill="#E0E0F9"/>
<circle id="Oval_35" cx="0.5" cy="0.5" r="0.5" transform="matrix(0 1 1 0 25 7)" fill="#E0E0F9"/>
<circle id="Oval_36" cx="0.5" cy="0.5" r="0.5" transform="matrix(0 1 1 0 54 9)" fill="#E0E0F9"/>
<circle id="Oval_37" cx="0.5" cy="0.5" r="0.5" transform="matrix(0 1 1 0 40 4)" fill="#E0E0F9"/>
<circle id="Oval_38" cx="0.5" cy="0.5" r="0.5" transform="matrix(0 1 1 0 38 13)" fill="#E0E0F9"/>
<circle id="Oval_39" cx="0.5" cy="0.5" r="0.5" transform="matrix(0 1 1 0 27 17)" fill="#E0E0F9"/>
<g id="Group 3 Copy 15">
<circle id="Oval_40" cx="0.5" cy="0.5" r="0.5" transform="matrix(-1 0 0 1 75 35)" fill="#E0E0F9"/>
<circle id="Oval_41" cx="0.5" cy="0.5" r="0.5" transform="matrix(-1 0 0 1 68 23)" fill="#E0E0F9"/>
</g>
</g>
</g>
<defs>
<linearGradient id="paint0_linear_2_428" x1="-6.73712" y1="0" x2="-6.73712" y2="97.4742" gradientUnits="userSpaceOnUse">
<stop stop-color="#2819CE"/>
<stop offset="1" stop-color="#A267FA"/>
</linearGradient>
<linearGradient id="paint1_linear_2_428" x1="56.8076" y1="11.2179" x2="56.8076" y2="19.2179" gradientUnits="userSpaceOnUse">
<stop stop-color="white"/>
<stop offset="1" stop-color="white" stop-opacity="0.01"/>
</linearGradient>
<linearGradient id="paint2_linear_2_428" x1="29.8207" y1="53.2834" x2="47.0338" y2="76.5916" gradientUnits="userSpaceOnUse">
<stop stop-color="#AAA4FF"/>
<stop offset="1" stop-color="#19D2EA"/>
</linearGradient>
<linearGradient id="paint3_linear_2_428" x1="44.4227" y1="68.1811" x2="67.8105" y2="98.5828" gradientUnits="userSpaceOnUse">
<stop stop-color="#AAA4FF"/>
<stop offset="1" stop-color="#19D2EA"/>
</linearGradient>
<linearGradient id="paint4_linear_2_428" x1="21.2068" y1="74.3855" x2="39.197" y2="105.914" gradientUnits="userSpaceOnUse">
<stop stop-color="#AAA4FF"/>
<stop offset="1" stop-color="#19D2EA"/>
</linearGradient>
<linearGradient id="paint5_linear_2_428" x1="7.09401" y1="63.9974" x2="12.7641" y2="75.6111" gradientUnits="userSpaceOnUse">
<stop stop-color="#AAA4FF"/>
<stop offset="1" stop-color="#19D2EA"/>
</linearGradient>
<linearGradient id="paint6_linear_2_428" x1="11.8593" y1="69.9412" x2="14.5944" y2="74.9553" gradientUnits="userSpaceOnUse">
<stop stop-color="#AAA4FF"/>
<stop offset="1" stop-color="#19D2EA"/>
</linearGradient>
<linearGradient id="paint7_linear_2_428" x1="15.9863" y1="57.8092" x2="19.8619" y2="64.5078" gradientUnits="userSpaceOnUse">
<stop stop-color="#AAA4FF"/>
<stop offset="1" stop-color="#19D2EA"/>
</linearGradient>
<linearGradient id="paint8_linear_2_428" x1="25.3033" y1="19" x2="25.3033" y2="30" gradientUnits="userSpaceOnUse">
<stop stop-color="white"/>
<stop offset="1" stop-color="white" stop-opacity="0.01"/>
</linearGradient>
<clipPath id="clip0_2_428">
<rect width="84" height="84" rx="42" fill="white"/>
</clipPath>
</defs>
</svg>
