<svg width="84" height="84" viewBox="0 0 84 84" fill="none" xmlns="http://www.w3.org/2000/svg">
<g id="Weather / Morning / Bright">
<g clip-path="url(#clip0_2_771)">
<g id="forest">
<circle id="Oval" cx="42" cy="42" r="42" fill="url(#paint0_linear_2_771)"/>
<g id="Group 7">
<path id="Path" d="M-1.07812 22.8984C10.462 22.8984 20.5938 35.9655 20.5938 48.4922C20.5938 50.149 19.2506 51.4922 17.5938 51.4922C15.9369 51.4922 14.5938 50.149 14.5938 48.4922C14.5938 38.9933 6.76649 28.8984 -1.07812 28.8984C-8.8903 28.8984 -16.5938 38.9497 -16.5938 48.4922C-16.5938 50.149 -17.9369 51.4922 -19.5938 51.4922C-21.2506 51.4922 -22.5938 50.149 -22.5938 48.4922C-22.5938 35.9318 -12.6047 22.8984 -1.07812 22.8984Z" fill="#9B61FF"/>
<path id="Path_2" d="M-1.07812 18.6797C12.7324 18.6797 24.8125 33.6153 24.8125 48.4922C24.8125 50.149 23.4694 51.4922 21.8125 51.4922C20.1556 51.4922 18.8125 50.149 18.8125 48.4922C18.8125 36.682 9.10492 24.6797 -1.07812 24.6797C-11.2296 24.6797 -20.8125 36.6404 -20.8125 48.4922C-20.8125 50.149 -22.1556 51.4922 -23.8125 51.4922C-25.4694 51.4922 -26.8125 50.149 -26.8125 48.4922C-26.8125 33.5828 -14.8722 18.6797 -1.07812 18.6797Z" fill="#2195FF"/>
<path id="Path_3" d="M-1.07812 13.9922C15.2745 13.9922 29.5 31.0094 29.5 48.4922C29.5 50.149 28.1569 51.4922 26.5 51.4922C24.8431 51.4922 23.5 50.149 23.5 48.4922C23.5 34.109 11.6991 19.9922 -1.07812 19.9922C-13.8244 19.9922 -25.5 34.0692 -25.5 48.4922C-25.5 50.149 -26.8431 51.4922 -28.5 51.4922C-30.1569 51.4922 -31.5 50.149 -31.5 48.4922C-31.5 30.9776 -17.4121 13.9922 -1.07812 13.9922Z" fill="#35E6E6"/>
<path id="Path_4" d="M-1.07812 9.92969C17.488 9.92969 33.5625 28.7542 33.5625 48.4922C33.5625 50.149 32.2194 51.4922 30.5625 51.4922C28.9056 51.4922 27.5625 50.149 27.5625 48.4922C27.5625 31.8762 13.9455 15.9297 -1.07812 15.9297C-16.0711 15.9297 -29.5625 31.8375 -29.5625 48.4922C-29.5625 50.149 -30.9056 51.4922 -32.5625 51.4922C-34.2194 51.4922 -35.5625 50.149 -35.5625 48.4922C-35.5625 28.7228 -19.6241 9.92969 -1.07812 9.92969Z" fill="#14D3A1"/>
<path id="Path_5" d="M-1.15625 5.86719C19.6724 5.86719 37.625 26.5359 37.625 48.5703C37.625 50.2272 36.2819 51.5703 34.625 51.5703C32.9681 51.5703 31.625 50.2272 31.625 48.5703C31.625 29.6765 16.1561 11.8672 -1.15625 11.8672C-18.4381 11.8672 -33.7812 29.6387 -33.7812 48.5703C-33.7812 50.2272 -35.1244 51.5703 -36.7812 51.5703C-38.4381 51.5703 -39.7812 50.2272 -39.7812 48.5703C-39.7812 26.5048 -21.9637 5.86719 -1.15625 5.86719Z" fill="#FEDA42"/>
<path id="Path_6" d="M-1.07812 -3C24.8459 -3 47 21.8151 47 49C47 50.6569 45.6569 52 44 52C42.3431 52 41 50.6569 41 49C41 24.9867 21.371 3 -1.07812 3C-23.4971 3 -43 24.9505 -43 49C-43 50.6569 -44.3431 52 -46 52C-47.6569 52 -49 50.6569 -49 49C-49 21.7844 -26.9792 -3 -1.07812 -3Z" fill="#FB6849"/>
<path id="Path_7" d="M-1.07812 1.33594C22.189 1.33594 42.1562 23.99 42.1562 48.4922C42.1562 50.149 40.8131 51.4922 39.1562 51.4922C37.4994 51.4922 36.1562 50.149 36.1562 48.4922C36.1562 27.1469 18.6949 7.33594 -1.07812 7.33594C-20.8209 7.33594 -38.1562 27.11 -38.1562 48.4922C-38.1562 50.149 -39.4994 51.4922 -41.1562 51.4922C-42.8131 51.4922 -44.1562 50.149 -44.1562 48.4922C-44.1562 23.9591 -24.3232 1.33594 -1.07812 1.33594Z" fill="#FFBC01"/>
</g>
<g id="Group">
<path id="Path_8" d="M56.3327 53.3154C55.8745 53.3154 55.5035 52.9443 55.5035 52.4867V43.5621C55.5035 43.1045 55.8746 42.7334 56.3327 42.7334C56.7909 42.7334 57.1619 43.1045 57.1619 43.5621V52.4867C57.1619 52.9445 56.7909 53.3154 56.3327 53.3154Z" fill="#674447"/>
<g id="Path_9">
<path d="M61.5551 42.8018C61.5551 45.6862 59.2169 48.0244 56.3325 48.0244C53.4481 48.0244 51.1099 45.6862 51.1099 42.8018C51.1099 39.9174 53.4481 31.0508 56.3325 31.0508C59.2169 31.051 61.5551 39.9174 61.5551 42.8018Z" fill="#43AB5F"/>
<path d="M61.5551 42.8018C61.5551 45.6862 59.2169 48.0244 56.3325 48.0244C53.4481 48.0244 51.1099 45.6862 51.1099 42.8018C51.1099 39.9174 53.4481 31.0508 56.3325 31.0508C59.2169 31.051 61.5551 39.9174 61.5551 42.8018Z" fill="#BBDBFE" fill-opacity="0.3"/>
</g>
<g id="Path_10">
<path d="M56.3325 31.0508C55.6085 31.0508 54.919 31.6105 54.2921 32.4931H54.2922C56.9322 32.4931 59.0722 40.6083 59.0722 43.2482C59.0722 45.5446 57.4516 47.4592 55.2925 47.9196C55.6287 47.9875 55.9762 48.0244 56.3324 48.0244C59.2167 48.0244 61.555 45.6862 61.555 42.8018C61.5551 39.9174 59.2167 31.0508 56.3325 31.0508Z" fill="#71BE63"/>
<path d="M56.3325 31.0508C55.6085 31.0508 54.919 31.6105 54.2921 32.4931H54.2922C56.9322 32.4931 59.0722 40.6083 59.0722 43.2482C59.0722 45.5446 57.4516 47.4592 55.2925 47.9196C55.6287 47.9875 55.9762 48.0244 56.3324 48.0244C59.2167 48.0244 61.555 45.6862 61.555 42.8018C61.5551 39.9174 59.2167 31.0508 56.3325 31.0508Z" fill="#BADAFD" fill-opacity="0.3"/>
</g>
</g>
<g id="Group 2">
<g id="Path_11">
<path d="M81.4453 75.1289L42.5625 54.3038L43.5469 52.1796C52.9616 52.1796 69.2991 42.6091 99 45.9998C99 56.4616 95.1662 66.022 88.8383 73.3746C84.8637 74.3241 81.4453 75.1289 81.4453 75.1289Z" fill="#9BF4AF"/>
<path d="M81.4453 75.1289L42.5625 54.3038L43.5469 52.1796C52.9616 52.1796 69.2991 42.6091 99 45.9998C99 56.4616 95.1662 66.022 88.8383 73.3746C84.8637 74.3241 81.4453 75.1289 81.4453 75.1289Z" fill="#477468" fill-opacity="0.4"/>
</g>
<g id="Path_12">
<path d="M43.5469 52.1797C52.1803 52.1797 66.6438 44.1392 91.8867 45.4182C69.4438 45.4376 55.6806 55.4839 48.6328 55.4839L46.6641 54.7496L43.4883 52.3064L43.5469 52.1797Z" fill="#9CFFB2"/>
<path d="M43.5469 52.1797C52.1803 52.1797 66.6438 44.1392 91.8867 45.4182C69.4438 45.4376 55.6806 55.4839 48.6328 55.4839L46.6641 54.7496L43.4883 52.3064L43.5469 52.1797Z" fill="#477468" fill-opacity="0.7"/>
</g>
</g>
<g id="Path_13">
<path d="M84.4858 59.2731C77.8977 73.8504 59.0366 85.2546 42 85.2546C30.0357 85.2546 15.9263 79.6402 6.27709 71.2433C4.15259 69.3945 1.77753 65.7601 0.110962 62.4387C-1.49302 59.2419 -0.249443 53.6781 0.928459 52.6815C5.28417 48.9961 12.9137 45.3345 23.3182 46.1328C50.114 48.1886 61.8284 59.0625 84.4858 59.0625V59.2731Z" fill="#9CFFB2"/>
<path d="M84.4858 59.2731C77.8977 73.8504 59.0366 85.2546 42 85.2546C30.0357 85.2546 15.9263 79.6402 6.27709 71.2433C4.15259 69.3945 1.77753 65.7601 0.110962 62.4387C-1.49302 59.2419 -0.249443 53.6781 0.928459 52.6815C5.28417 48.9961 12.9137 45.3345 23.3182 46.1328C50.114 48.1886 61.8284 59.0625 84.4858 59.0625V59.2731Z" fill="#477468" fill-opacity="0.6"/>
</g>
<g id="Group_2">
<path id="Path_14" d="M74.0707 56.3198C73.5507 56.3198 73.1296 55.8988 73.1296 55.3795V45.2519C73.1296 44.7327 73.5506 44.3117 74.0707 44.3117C74.5907 44.3117 75.0116 44.7327 75.0116 45.2519V55.3795C75.0116 55.8988 74.5906 56.3198 74.0707 56.3198Z" fill="#674447"/>
<g id="Path_15">
<path d="M79.9967 44.3893C79.9967 47.6623 77.3434 50.3157 74.0703 50.3157C70.7973 50.3157 68.1439 47.6623 68.1439 44.3893C68.1439 41.1163 70.7973 31.0546 74.0703 31.0546C77.3434 31.0546 79.9967 41.1161 79.9967 44.3893Z" fill="#43AB5F"/>
<path d="M79.9967 44.3893C79.9967 47.6623 77.3434 50.3157 74.0703 50.3157C70.7973 50.3157 68.1439 47.6623 68.1439 44.3893C68.1439 41.1163 70.7973 31.0546 74.0703 31.0546C77.3434 31.0546 79.9967 41.1161 79.9967 44.3893Z" fill="#BBDBFE" fill-opacity="0.3"/>
</g>
<g id="Path_16">
<path d="M74.0703 31.0546C73.2487 31.0546 72.4663 31.6897 71.7549 32.6913H71.7551C74.7509 32.6913 77.1793 41.9001 77.1793 44.8959C77.1793 47.5017 75.3403 49.6744 72.8902 50.1969C73.2717 50.2741 73.6661 50.3159 74.0702 50.3159C77.3432 50.3159 79.9968 47.6625 79.9968 44.3895C79.9969 41.1161 77.3434 31.0546 74.0703 31.0546Z" fill="#71BE63"/>
<path d="M74.0703 31.0546C73.2487 31.0546 72.4663 31.6897 71.7549 32.6913H71.7551C74.7509 32.6913 77.1793 41.9001 77.1793 44.8959C77.1793 47.5017 75.3403 49.6744 72.8902 50.1969C73.2717 50.2741 73.6661 50.3159 74.0702 50.3159C77.3432 50.3159 79.9968 47.6625 79.9968 44.3895C79.9969 41.1161 77.3434 31.0546 74.0703 31.0546Z" fill="#BADAFD" fill-opacity="0.3"/>
</g>
</g>
</g>
</g>
</g>
<defs>
<linearGradient id="paint0_linear_2_771" x1="110.083" y1="70.9584" x2="84" y2="-13.0416" gradientUnits="userSpaceOnUse">
<stop stop-color="#84C8F2"/>
<stop offset="1" stop-color="#C2DDFF"/>
</linearGradient>
<clipPath id="clip0_2_771">
<rect width="84" height="84" rx="42" fill="white"/>
</clipPath>
</defs>
</svg>
