<svg width="84" height="84" viewBox="0 0 84 84" fill="none" xmlns="http://www.w3.org/2000/svg">
<g id="Weather / Day / Rainy / 1">
<g clip-path="url(#clip0_2_73)">
<rect width="84" height="84" rx="42" fill="url(#paint0_linear_2_73)"/>
<g id="Group">
<path id="Path 55" fill-rule="evenodd" clip-rule="evenodd" d="M39.3623 36L100.96 69.919V98.9701H-17L-16.4425 71.3204L39.3623 36Z" fill="#374C70"/>
<path id="Path 55_2" fill-rule="evenodd" clip-rule="evenodd" d="M38.5147 38.7121L41.9801 39.56L41.8891 37.3019L60.8087 47.7189L57.5546 47.8541L56.1868 48.8614L48.4928 44.5172L54.4067 50.1723L52.8629 51.3093L53.814 53.8949L46.9486 56.9961L39.9737 50.0853L44.4612 50.9033L41.6196 46.4993L48.4928 49.6949L42.6774 44.5172L45.2955 45.3998L38.5147 38.7121Z" fill="url(#paint1_linear_2_73)"/>
<path id="Path 55_3" fill-rule="evenodd" clip-rule="evenodd" d="M61.5775 50.0485L63.8952 49.4474L84.4936 60.8345L81.4673 64.2157L78.2722 63.1336L80.2867 65.4507L75.3046 70.6455L68.0944 67.4851L72.2069 74.8868L59.2336 65.7034L58.8885 59.8672L55.6357 55.4273L58.672 56.2062L57.6339 51.986L62.2406 51.4971L61.5775 50.0485Z" fill="url(#paint2_linear_2_73)"/>
<path id="Path 55_4" fill-rule="evenodd" clip-rule="evenodd" d="M34.2625 56.6532L40.787 60.125V57.7868L54.2597 69.6324L52.1275 64.8933L59.9987 67.4851L67.7143 76.7715L61.7402 77.6205L49.6528 71.8715L55.753 78.4713L48.5514 79.4947L34.2625 66.6635V62.5843L38.5147 64.8933L34.2625 56.6532Z" fill="url(#paint3_linear_2_73)"/>
<path id="Path 55_5" fill-rule="evenodd" clip-rule="evenodd" d="M12.9406 57.7663L12.3449 54.616L19.0718 56.9961L25.7988 62.4762L19.0825 61.7716L12.9406 57.7663Z" fill="url(#paint4_linear_2_73)"/>
<path id="Path 55_6" fill-rule="evenodd" clip-rule="evenodd" d="M16.1502 66.515L13.9852 62.9592L19.4325 64.2376L18.5564 65.6795L16.1502 66.515Z" fill="url(#paint5_linear_2_73)"/>
<path id="Path 55_7" fill-rule="evenodd" clip-rule="evenodd" d="M30.165 53.5558L28.2747 49.6649L33.4472 51.2784H30.165V53.5558Z" fill="url(#paint6_linear_2_73)"/>
<path id="Path 55_8" fill-rule="evenodd" clip-rule="evenodd" d="M18.7409 52.156H20.8747L19.8896 50.0853L22.7733 51.3468L25.7988 53.8215L21.9084 54.9718L18.7409 52.156Z" fill="url(#paint7_linear_2_73)"/>
<path id="Line 6" opacity="0.4" fill-rule="evenodd" clip-rule="evenodd" d="M21.234 21.4253C21.1169 21.3082 21.1169 21.1182 21.234 21.0011C21.3512 20.8839 21.5412 20.8839 21.6583 21.0011L23.7796 23.1224C23.8968 23.2396 23.8968 23.4295 23.7796 23.5467C23.6625 23.6638 23.4725 23.6638 23.3554 23.5467L21.234 21.4253ZM31.8406 32.0319C31.7235 31.9148 31.7235 31.7248 31.8406 31.6077C31.9578 31.4905 32.1478 31.4905 32.2649 31.6077L34.3862 33.729C34.5034 33.8462 34.5034 34.0361 34.3862 34.1533C34.2691 34.2704 34.0791 34.2704 33.962 34.1533L31.8406 32.0319ZM53.0539 52.8209C52.9367 52.938 52.9367 53.128 53.0539 53.2451L55.1752 55.3665C55.2923 55.4836 55.4823 55.4836 55.5994 55.3665C55.7166 55.2493 55.7166 55.0594 55.5994 54.9422L53.4781 52.8209C53.361 52.7037 53.171 52.7037 53.0539 52.8209ZM63.6605 63.8517C63.5433 63.7346 63.5433 63.5446 63.6605 63.4275C63.7776 63.3103 63.9676 63.3103 64.0847 63.4275L66.206 65.5488C66.3232 65.666 66.3232 65.8559 66.206 65.9731C66.0889 66.0902 65.8989 66.0902 65.7818 65.9731L63.6605 63.8517ZM74.2671 74.0341C74.1499 74.1512 74.1499 74.3412 74.2671 74.4583L76.3884 76.5797C76.5055 76.6968 76.6955 76.6968 76.8126 76.5797C76.9298 76.4625 76.9298 76.2726 76.8126 76.1554L74.6913 74.0341C74.5742 73.9169 74.3842 73.9169 74.2671 74.0341Z" fill="white"/>
<path id="Line 6_2" opacity="0.4" fill-rule="evenodd" clip-rule="evenodd" d="M23.0208 0.212144C22.9037 0.094987 22.9037 -0.0949625 23.0208 -0.21212C23.138 -0.329277 23.328 -0.329277 23.4451 -0.21212L25.5664 1.9092C25.6836 2.02636 25.6836 2.21631 25.5664 2.33346C25.4493 2.45062 25.2593 2.45062 25.1422 2.33346L23.0208 0.212144ZM45.6483 22.8396C45.5311 22.7224 45.5311 22.5325 45.6483 22.4153C45.7654 22.2981 45.9554 22.2981 46.0725 22.4153L48.1938 24.5366C48.311 24.6538 48.311 24.8437 48.1938 24.9609C48.0767 25.078 47.8867 25.078 47.7696 24.9609L45.6483 22.8396ZM56.962 33.729C56.8448 33.8462 56.8448 34.0361 56.962 34.1533L59.0833 36.2746C59.2004 36.3917 59.3904 36.3917 59.5076 36.2746C59.6247 36.1574 59.6247 35.9675 59.5076 35.8503L57.3862 33.729C57.2691 33.6118 57.0791 33.6118 56.962 33.729ZM68.2757 45.467C68.1585 45.3498 68.1585 45.1599 68.2757 45.0427C68.3928 44.9256 68.5828 44.9256 68.6999 45.0427L70.8213 47.164C70.9384 47.2812 70.9384 47.4711 70.8213 47.5883C70.7041 47.7055 70.5142 47.7055 70.397 47.5883L68.2757 45.467ZM79.5894 56.3564C79.4722 56.4736 79.4722 56.6635 79.5894 56.7807L81.7107 58.902C81.8279 59.0192 82.0178 59.0192 82.135 58.902C82.2521 58.7849 82.2521 58.5949 82.135 58.4777L80.0136 56.3564C79.8965 56.2393 79.7065 56.2393 79.5894 56.3564ZM90.9031 68.0944C90.7859 67.9772 90.7859 67.7873 90.9031 67.6701C91.0202 67.553 91.2102 67.553 91.3274 67.6701L93.4487 69.7915C93.5658 69.9086 93.5658 70.0986 93.4487 70.2157C93.3315 70.3329 93.1416 70.3329 93.0244 70.2157L90.9031 68.0944ZM102.217 78.9838C102.1 79.101 102.1 79.2909 102.217 79.4081L104.338 81.5294C104.455 81.6466 104.645 81.6466 104.762 81.5294C104.88 81.4123 104.88 81.2223 104.762 81.1052L102.641 78.9838C102.524 78.8667 102.334 78.8667 102.217 78.9838Z" fill="white"/>
<path id="Line 6 Copy 2" opacity="0.4" fill-rule="evenodd" clip-rule="evenodd" d="M54.3345 8.52586C54.2174 8.40871 54.2174 8.21876 54.3345 8.1016C54.4517 7.98444 54.6417 7.98444 54.7588 8.1016L56.8801 10.2229C56.9973 10.3401 56.9973 10.53 56.8801 10.6472C56.763 10.7643 56.573 10.7643 56.4559 10.6472L54.3345 8.52586ZM65.6483 19.8396C65.5311 19.7224 65.5311 19.5325 65.6483 19.4153C65.7654 19.2982 65.9554 19.2982 66.0725 19.4153L68.1938 21.5366C68.311 21.6538 68.311 21.8437 68.1938 21.9609C68.0767 22.0781 67.8867 22.0781 67.7696 21.9609L65.6483 19.8396ZM76.962 30.729C76.8448 30.8462 76.8448 31.0361 76.962 31.1533L79.0833 33.2746C79.2004 33.3918 79.3904 33.3918 79.5075 33.2746C79.6247 33.1574 79.6247 32.9675 79.5075 32.8503L77.3862 30.729C77.2691 30.6119 77.0791 30.6119 76.962 30.729Z" fill="white"/>
<path id="Line 6_3" opacity="0.4" fill-rule="evenodd" clip-rule="evenodd" d="M0.0208418 20.2121C-0.0963155 20.095 -0.0963155 19.905 0.0208418 19.7879C0.137999 19.6707 0.327949 19.6707 0.445106 19.7879L2.56643 21.9092C2.68358 22.0264 2.68358 22.2163 2.56643 22.3335C2.44927 22.4506 2.25932 22.4506 2.14216 22.3335L0.0208418 20.2121ZM11.3345 31.5259C11.2174 31.4087 11.2174 31.2187 11.3345 31.1016C11.4517 30.9844 11.6417 30.9844 11.7588 31.1016L13.8801 33.2229C13.9973 33.3401 13.9973 33.53 13.8801 33.6472C13.763 33.7643 13.573 33.7643 13.4559 33.6472L11.3345 31.5259ZM22.6483 42.4153C22.5311 42.5325 22.5311 42.7224 22.6483 42.8396L24.7696 44.9609C24.8867 45.078 25.0767 45.078 25.1938 44.9609C25.311 44.8437 25.311 44.6538 25.1938 44.5366L23.0725 42.4153C22.9554 42.2981 22.7654 42.2981 22.6483 42.4153ZM33.962 54.1533C33.8448 54.0361 33.8448 53.8462 33.962 53.729C34.0791 53.6118 34.2691 53.6118 34.3862 53.729L36.5076 55.8503C36.6247 55.9675 36.6247 56.1574 36.5076 56.2746C36.3904 56.3917 36.2004 56.3917 36.0833 56.2746L33.962 54.1533ZM45.2757 65.0427C45.1585 65.1599 45.1585 65.3498 45.2757 65.467L47.397 67.5883C47.5142 67.7055 47.7041 67.7055 47.8213 67.5883C47.9384 67.4711 47.9384 67.2812 47.8213 67.164L45.6999 65.0427C45.5828 64.9256 45.3928 64.9256 45.2757 65.0427ZM67.9031 88.0944C67.7859 87.9772 67.7859 87.7873 67.9031 87.6701C68.0202 87.553 68.2102 87.553 68.3274 87.6701L70.4487 89.7915C70.5658 89.9086 70.5658 90.0986 70.4487 90.2157C70.3315 90.3329 70.1416 90.3329 70.0244 90.2157L67.9031 88.0944ZM79.2168 98.9838C79.0996 99.101 79.0996 99.2909 79.2168 99.4081L81.3381 101.529C81.4553 101.647 81.6452 101.647 81.7624 101.529C81.8795 101.412 81.8795 101.222 81.7624 101.105L79.6411 98.9838C79.5239 98.8667 79.334 98.8667 79.2168 98.9838Z" fill="white"/>
<path id="Line 6_4" opacity="0.4" fill-rule="evenodd" clip-rule="evenodd" d="M12.0417 50.233C11.9245 50.1158 11.9245 49.9259 12.0417 49.8087C12.1588 49.6915 12.3488 49.6915 12.4659 49.8087L16.0015 53.3442C16.1186 53.4614 16.1186 53.6513 16.0015 53.7685C15.8843 53.8856 15.6943 53.8856 15.5772 53.7685L12.0417 50.233ZM24.0625 62.2538C23.9453 62.1366 23.9453 61.9467 24.0625 61.8295C24.1796 61.7124 24.3696 61.7124 24.4867 61.8295L28.0223 65.365C28.1394 65.4822 28.1394 65.6721 28.0223 65.7893C27.9051 65.9065 27.7152 65.9065 27.598 65.7893L24.0625 62.2538ZM48.1041 85.8711C47.9869 85.9883 47.9869 86.1782 48.1041 86.2954L51.6396 89.8309C51.7568 89.9481 51.9467 89.9481 52.0639 89.8309C52.1811 89.7138 52.1811 89.5238 52.0639 89.4067L48.5284 85.8711C48.4112 85.754 48.2213 85.754 48.1041 85.8711ZM60.1249 98.3162C60.0078 98.1991 60.0078 98.0091 60.1249 97.892C60.2421 97.7748 60.432 97.7748 60.5492 97.892L64.0847 101.427C64.2019 101.545 64.2019 101.735 64.0847 101.852C63.9676 101.969 63.7776 101.969 63.6604 101.852L60.1249 98.3162ZM72.1457 109.913C72.0286 110.03 72.0286 110.22 72.1457 110.337L75.6813 113.873C75.7984 113.99 75.9884 113.99 76.1055 113.873C76.2227 113.755 76.2227 113.565 76.1055 113.448L72.57 109.913C72.4528 109.796 72.2629 109.796 72.1457 109.913Z" fill="white"/>
<path id="Line 6_5" opacity="0.4" d="M11.3345 59.5259C11.2174 59.4087 11.2174 59.2188 11.3345 59.1016C11.4517 58.9844 11.6417 58.9844 11.7588 59.1016L14.5872 61.93C14.7044 62.0472 14.7044 62.2371 14.5872 62.3543C14.4701 62.4714 14.2801 62.4714 14.163 62.3543L11.3345 59.5259Z" fill="white"/>
<path id="Line 6_6" opacity="0.4" fill-rule="evenodd" clip-rule="evenodd" d="M40.0208 0.78788C39.9037 0.905037 39.9037 1.09499 40.0208 1.21214L45.6777 6.869C45.7948 6.98616 45.9848 6.98616 46.102 6.869C46.2191 6.75184 46.2191 6.56189 46.102 6.44473L40.4451 0.78788C40.3279 0.670723 40.138 0.670723 40.0208 0.78788ZM63.3554 29.1224C63.2382 29.2396 63.2382 29.4295 63.3554 29.5467L69.0122 35.2035C69.1294 35.3207 69.3193 35.3207 69.4365 35.2035C69.5536 35.0864 69.5536 34.8964 69.4365 34.7793L63.7796 29.1224C63.6625 29.0052 63.4725 29.0052 63.3554 29.1224Z" fill="white"/>
<path id="Line 6 Copy" opacity="0.4" fill-rule="evenodd" clip-rule="evenodd" d="M61.4559 10.2229C61.3387 10.3401 61.3387 10.53 61.4559 10.6472L62.163 11.3543C62.2801 11.4714 62.4701 11.4714 62.5872 11.3543C62.7044 11.2371 62.7044 11.0472 62.5872 10.93L61.8801 10.2229C61.763 10.1058 61.573 10.1058 61.4559 10.2229ZM74.8909 23.6579C74.7737 23.7751 74.7737 23.965 74.8909 24.0822L75.598 24.7893C75.7152 24.9065 75.9051 24.9065 76.0223 24.7893C76.1394 24.6722 76.1394 24.4822 76.0223 24.365L75.3152 23.6579C75.198 23.5408 75.0081 23.5408 74.8909 23.6579Z" fill="white"/>
<path id="Line 6_7" opacity="0.4" fill-rule="evenodd" clip-rule="evenodd" d="M34.1127 22.304C33.9956 22.1869 33.9956 21.9969 34.1127 21.8798C34.2299 21.7626 34.4198 21.7626 34.537 21.8798L41.6081 28.9508C41.7252 29.068 41.7252 29.2579 41.6081 29.3751C41.4909 29.4923 41.3009 29.4923 41.1838 29.3751L34.1127 22.304ZM8.08787 40.5121C7.97071 40.395 7.97071 40.205 8.08787 40.0879C8.20503 39.9707 8.39497 39.9707 8.51213 40.0879L15.5832 47.159C15.7004 47.2761 15.7004 47.4661 15.5832 47.5832C15.466 47.7004 15.2761 47.7004 15.1589 47.5832L8.08787 40.5121ZM70.2965 58.0635C70.1793 58.1807 70.1793 58.3706 70.2965 58.4878L77.3676 65.5589C77.4847 65.676 77.6747 65.676 77.7918 65.5589C77.909 65.4417 77.909 65.2518 77.7918 65.1346L70.7208 58.0635C70.6036 57.9464 70.4136 57.9464 70.2965 58.0635Z" fill="white"/>
<path id="Oval 4" opacity="0.9" d="M26.9683 22.0973H36.6791C39.6706 22.0973 42.0957 19.6592 42.0957 16.6517C42.0957 13.6443 39.6706 11.2062 36.6791 11.2062C35.7763 11.2062 34.9251 11.4283 34.1766 11.8209C33.1344 8.7818 30.2645 6.59851 26.8874 6.59851C22.6302 6.59851 19.1791 10.068 19.1791 14.3479C19.1791 14.4356 19.1805 14.523 19.1834 14.61C17.9407 15.2812 17.0957 16.6003 17.0957 18.1178C17.0957 20.3156 18.8679 22.0973 21.0541 22.0973H26.8874C26.8996 22.0973 26.9683 22.0973 26.9683 22.0973H26.8874H26.9683Z" fill="url(#paint8_linear_2_73)"/>
<path id="Path" opacity="0.6" d="M11.1127 20.304C10.9956 20.1869 10.9956 19.9969 11.1127 19.8798C11.2299 19.7626 11.4198 19.7626 11.537 19.8798L18.6081 26.9508C18.7252 27.068 18.7252 27.2579 18.6081 27.3751C18.4909 27.4923 18.3009 27.4923 18.1838 27.3751L11.1127 20.304Z" fill="white"/>
<path id="Path Copy" opacity="0.120554" d="M50.0879 35.5121C49.9707 35.395 49.9707 35.205 50.0879 35.0879C50.205 34.9707 50.395 34.9707 50.5121 35.0879L52.6335 37.2092C52.7506 37.3263 52.7506 37.5163 52.6335 37.6335C52.5163 37.7506 52.3263 37.7506 52.2092 37.6335L50.0879 35.5121Z" fill="white"/>
<path id="Path_2" opacity="0.5" d="M43.962 11.1533C43.8448 11.0361 43.8448 10.8462 43.962 10.729C44.0791 10.6119 44.2691 10.6119 44.3862 10.729L46.5076 12.8503C46.6247 12.9675 46.6247 13.1574 46.5076 13.2746C46.3904 13.3918 46.2004 13.3918 46.0833 13.2746L43.962 11.1533Z" fill="white"/>
</g>
</g>
</g>
<defs>
<linearGradient id="paint0_linear_2_73" x1="90.7616" y1="84" x2="90.7616" y2="-7.3985" gradientUnits="userSpaceOnUse">
<stop stop-color="#6E7C84"/>
<stop offset="1" stop-color="#668BA7"/>
</linearGradient>
<linearGradient id="paint1_linear_2_73" x1="31.0235" y1="43.6767" x2="43.3179" y2="61.3763" gradientUnits="userSpaceOnUse">
<stop stop-color="#5B8189"/>
<stop offset="1" stop-color="#A5BABD"/>
</linearGradient>
<linearGradient id="paint2_linear_2_73" x1="45.9389" y1="57.6818" x2="61.8082" y2="80.5759" gradientUnits="userSpaceOnUse">
<stop stop-color="#5B8189"/>
<stop offset="1" stop-color="#A5BABD"/>
</linearGradient>
<linearGradient id="paint3_linear_2_73" x1="23.0221" y1="64.0467" x2="35.7054" y2="87.6698" gradientUnits="userSpaceOnUse">
<stop stop-color="#5B8189"/>
<stop offset="1" stop-color="#A5BABD"/>
</linearGradient>
<linearGradient id="paint4_linear_2_73" x1="7.82407" y1="57.1602" x2="11.7966" y2="65.8078" gradientUnits="userSpaceOnUse">
<stop stop-color="#5B8189"/>
<stop offset="1" stop-color="#A5BABD"/>
</linearGradient>
<linearGradient id="paint5_linear_2_73" x1="12.1548" y1="64.1102" x2="14.0794" y2="67.8598" gradientUnits="userSpaceOnUse">
<stop stop-color="#5B8189"/>
<stop offset="1" stop-color="#A5BABD"/>
</linearGradient>
<linearGradient id="paint6_linear_2_73" x1="26.5366" y1="50.9243" x2="28.8082" y2="54.7648" gradientUnits="userSpaceOnUse">
<stop stop-color="#5B8189"/>
<stop offset="1" stop-color="#A5BABD"/>
</linearGradient>
<linearGradient id="paint7_linear_2_73" x1="16.3693" y1="51.667" x2="19.1033" y2="56.6891" gradientUnits="userSpaceOnUse">
<stop stop-color="#5B8189"/>
<stop offset="1" stop-color="#A5BABD"/>
</linearGradient>
<linearGradient id="paint8_linear_2_73" x1="21.7081" y1="-24.9445" x2="46.3234" y2="19.7699" gradientUnits="userSpaceOnUse">
<stop stop-color="white"/>
<stop offset="1" stop-color="white" stop-opacity="0.01"/>
</linearGradient>
<clipPath id="clip0_2_73">
<rect width="84" height="84" rx="42" fill="white"/>
</clipPath>
</defs>
</svg>
