<svg width="84" height="84" viewBox="0 0 84 84" fill="none" xmlns="http://www.w3.org/2000/svg">
<g id="Weather / Day / Rainy / 2">
<g clip-path="url(#clip0_2_135)">
<rect width="84" height="84" rx="42" fill="url(#paint0_linear_2_135)"/>
<g id="Group">
<path id="Fill 319" fill-rule="evenodd" clip-rule="evenodd" d="M65.3537 71.7987H57.0666V63.0192H52.6327V55.6438H51.4085V43.5298C51.4085 43.2372 51.1713 43 50.8787 43C50.5861 43 50.349 43.2372 50.349 43.5298V55.6438H49.1185V63.0192H44.6846V71.7987H36.4606V94.8619H34.7512H67H65.3537V71.7987Z" fill="#111125"/>
<path id="Fill 539" fill-rule="evenodd" clip-rule="evenodd" d="M41 81.8875H43V75H41V81.8875Z" fill="#AD9657"/>
<path id="Fill 539 Copy" fill-rule="evenodd" clip-rule="evenodd" d="M50 81.8875H52V75H50V81.8875Z" fill="#AD9657"/>
<path id="Fill 539 Copy 2" fill-rule="evenodd" clip-rule="evenodd" d="M59 81.8875H61V75H59V81.8875Z" fill="#AD9657"/>
<path id="Line 6" opacity="0.4" fill-rule="evenodd" clip-rule="evenodd" d="M17.3011 19.3011C17.1839 19.4183 17.1839 19.6082 17.3011 19.7254L19.4224 21.8467C19.5396 21.9638 19.7295 21.9638 19.8467 21.8467C19.9638 21.7295 19.9638 21.5396 19.8467 21.4224L17.7253 19.3011C17.6082 19.1839 17.4182 19.1839 17.3011 19.3011ZM46.1209 46.1209C46.0037 46.2381 46.0037 46.428 46.1209 46.5452L48.2422 48.6665C48.3594 48.7836 48.5493 48.7836 48.6665 48.6665C48.7836 48.5493 48.7836 48.3594 48.6665 48.2422L46.5451 46.1209C46.428 46.0037 46.238 46.0037 46.1209 46.1209Z" fill="white"/>
<path id="Line 6_2" opacity="0.4" fill-rule="evenodd" clip-rule="evenodd" d="M38.7153 15.7153C38.5981 15.8325 38.5981 16.0224 38.7153 16.1396L40.8366 18.2609C40.9538 18.3781 41.1437 18.3781 41.2609 18.2609C41.378 18.1437 41.378 17.9538 41.2609 17.8366L39.1396 15.7153C39.0224 15.5982 38.8325 15.5982 38.7153 15.7153ZM50.029 27.029C49.9118 27.1462 49.9118 27.3361 50.029 27.4533L52.1503 29.5746C52.2675 29.6918 52.4574 29.6918 52.5746 29.5746C52.6917 29.4574 52.6917 29.2675 52.5746 29.1503L50.4533 27.029C50.3361 26.9119 50.1462 26.9119 50.029 27.029ZM53.3427 42.767C53.2256 42.6498 53.2256 42.4599 53.3427 42.3427C53.4599 42.2256 53.6498 42.2256 53.767 42.3427L55.8883 44.464C56.0055 44.5812 56.0055 44.7712 55.8883 44.8883C55.7711 45.0055 55.5812 45.0055 55.464 44.8883L53.3427 42.767ZM72.6564 49.6564C72.5393 49.7736 72.5393 49.9635 72.6564 50.0807L74.7777 52.202C74.8949 52.3192 75.0848 52.3192 75.202 52.202C75.3192 52.0849 75.3192 51.8949 75.202 51.7778L73.0807 49.6564C72.9635 49.5393 72.7736 49.5393 72.6564 49.6564Z" fill="white"/>
<path id="Line 6 Copy 2" opacity="0.4" fill-rule="evenodd" clip-rule="evenodd" d="M47.4016 1.82585C47.2844 1.7087 47.2844 1.51875 47.4016 1.40159C47.5187 1.28443 47.7087 1.28443 47.8259 1.40159L49.9472 3.52291C50.0643 3.64007 50.0643 3.83002 49.9472 3.94717C49.83 4.06433 49.6401 4.06433 49.5229 3.94717L47.4016 1.82585ZM58.7153 13.1396C58.5981 13.0224 58.5981 12.8325 58.7153 12.7153C58.8325 12.5981 59.0224 12.5981 59.1396 12.7153L61.2609 14.8366C61.378 14.9538 61.378 15.1437 61.2609 15.2609C61.1437 15.378 60.9538 15.378 60.8366 15.2609L58.7153 13.1396ZM70.029 24.029C69.9118 24.1462 69.9118 24.3361 70.029 24.4533L72.1503 26.5746C72.2675 26.6917 72.4574 26.6917 72.5746 26.5746C72.6917 26.4574 72.6917 26.2675 72.5746 26.1503L70.4533 24.029C70.3361 23.9118 70.1462 23.9118 70.029 24.029Z" fill="white"/>
<path id="Line 6_3" opacity="0.4" fill-rule="evenodd" clip-rule="evenodd" d="M15.7153 36.1396C15.5981 36.0224 15.5981 35.8325 15.7153 35.7153C15.8325 35.5982 16.0224 35.5982 16.1396 35.7153L18.2609 37.8366C18.378 37.9538 18.378 38.1437 18.2609 38.2609C18.1437 38.3781 17.9538 38.3781 17.8366 38.2609L15.7153 36.1396ZM35.029 47.4533C34.9118 47.3361 34.9118 47.1462 35.029 47.029C35.1462 46.9119 35.3361 46.9119 35.4533 47.029L37.5746 49.1503C37.6917 49.2675 37.6917 49.4574 37.5746 49.5746C37.4574 49.6918 37.2675 49.6918 37.1503 49.5746L35.029 47.4533ZM38.3427 58.3427C38.2256 58.4599 38.2256 58.6498 38.3427 58.767L40.464 60.8883C40.5812 61.0055 40.7711 61.0055 40.8883 60.8883C41.0055 60.7712 41.0055 60.5812 40.8883 60.464L38.767 58.3427C38.6498 58.2256 38.4599 58.2256 38.3427 58.3427Z" fill="white"/>
<path id="Line 6_4" opacity="0.4" fill-rule="evenodd" clip-rule="evenodd" d="M5.1087 43.1087C4.99154 43.2258 4.99154 43.4158 5.1087 43.5329L8.64423 47.0685C8.76139 47.1856 8.95134 47.1856 9.06849 47.0685C9.18565 46.9513 9.18565 46.7614 9.06849 46.6442L5.53296 43.1087C5.4158 42.9915 5.22585 42.9915 5.1087 43.1087ZM22.1295 51.1295C22.0124 51.2467 22.0124 51.4366 22.1295 51.5538L25.665 55.0893C25.7822 55.2065 25.9722 55.2065 26.0893 55.0893C26.2065 54.9721 26.2065 54.7822 26.0893 54.665L22.5538 51.1295C22.4366 51.0123 22.2467 51.0123 22.1295 51.1295Z" fill="white"/>
<path id="Line 6_5" opacity="0.4" d="M4.40159 52.8259C4.28443 52.7087 4.28443 52.5187 4.40159 52.4016C4.51875 52.2844 4.7087 52.2844 4.82585 52.4016L7.65428 55.23C7.77144 55.3472 7.77144 55.5371 7.65428 55.6543C7.53712 55.7714 7.34717 55.7714 7.23002 55.6543L4.40159 52.8259Z" fill="white"/>
<path id="Line 6 Copy" opacity="0.4" fill-rule="evenodd" clip-rule="evenodd" d="M54.5229 3.5229C54.4057 3.64005 54.4057 3.83 54.5229 3.94716L55.23 4.65427C55.3472 4.77142 55.5371 4.77142 55.6543 4.65427C55.7714 4.53711 55.7714 4.34716 55.6543 4.23L54.9472 3.5229C54.83 3.40574 54.6401 3.40574 54.5229 3.5229ZM67.9579 16.9579C67.8408 17.0751 67.8408 17.265 67.9579 17.3822L68.665 18.0893C68.7822 18.2065 68.9721 18.2065 69.0893 18.0893C69.2065 17.9721 69.2065 17.7822 69.0893 17.665L68.3822 16.9579C68.265 16.8408 68.0751 16.8408 67.9579 16.9579Z" fill="white"/>
<path id="Line 6_6" opacity="0.4" fill-rule="evenodd" clip-rule="evenodd" d="M27.1798 9.60402C27.0626 9.48686 27.0626 9.29691 27.1798 9.17976C27.2969 9.0626 27.4869 9.0626 27.604 9.17976L34.6751 16.2508C34.7922 16.368 34.7922 16.5579 34.6751 16.6751C34.5579 16.7922 34.368 16.7922 34.2508 16.6751L27.1798 9.60402ZM1.1549 33.8121C1.03774 33.695 1.03774 33.505 1.1549 33.3879C1.27206 33.2707 1.46201 33.2707 1.57916 33.3879L8.65023 40.4589C8.76739 40.5761 8.76739 40.766 8.65023 40.8832C8.53307 41.0004 8.34312 41.0004 8.22597 40.8832L1.1549 33.8121ZM63.3635 51.3635C63.2464 51.4807 63.2464 51.6706 63.3635 51.7878L68.5925 56.8831C68.7096 57.0003 68.8996 57.0003 69.0167 56.8831C69.1339 56.766 69.1339 56.576 69.0167 56.4589L63.7878 51.3635C63.6706 51.2464 63.4807 51.2464 63.3635 51.3635Z" fill="white"/>
<path id="Path" opacity="0.6" d="M4.17976 13.604C4.0626 13.4869 4.0626 13.2969 4.17976 13.1798C4.29691 13.0626 4.48686 13.0626 4.60402 13.1798L11.6751 20.2508C11.7922 20.368 11.7922 20.5579 11.6751 20.6751C11.5579 20.7922 11.368 20.7922 11.2508 20.6751L4.17976 13.604Z" fill="white"/>
<path id="Path Copy" opacity="0.120554" d="M43.1549 28.8122C43.0377 28.695 43.0377 28.505 43.1549 28.3879C43.2721 28.2707 43.462 28.2707 43.5792 28.3879L45.7005 30.5092C45.8176 30.6264 45.8176 30.8163 45.7005 30.9335C45.5833 31.0506 45.3934 31.0506 45.2762 30.9335L43.1549 28.8122Z" fill="white"/>
<path id="Path_2" opacity="0.5" d="M37.029 4.45326C36.9118 4.33611 36.9118 4.14616 37.029 4.029C37.1462 3.91184 37.3361 3.91184 37.4533 4.029L39.5746 6.15032C39.6917 6.26748 39.6917 6.45743 39.5746 6.57458C39.4574 6.69174 39.2675 6.69174 39.1503 6.57458L37.029 4.45326Z" fill="white"/>
<path id="Path_3" opacity="0.5" d="M56.4224 22.8467C56.3052 22.7295 56.3052 22.5396 56.4224 22.4224C56.5396 22.3052 56.7295 22.3052 56.8467 22.4224L62.5035 28.0793C62.6207 28.1964 62.6207 28.3864 62.5035 28.5035C62.3864 28.6207 62.1964 28.6207 62.0793 28.5035L56.4224 22.8467Z" fill="white"/>
<path id="Combined Shape" fill-rule="evenodd" clip-rule="evenodd" d="M32.9659 25.7304C34.1868 28.4064 35.1033 30.1067 35.7357 30.8554C36.4076 31.6509 37.4822 31.7094 38.9025 31.0967C39.2501 32.2609 39.3824 33.1358 39.3057 33.7076C39.215 34.384 39.0417 35.2804 38.786 36.3951L38.6812 36.8517L39.1443 36.7942C39.9701 36.6917 40.434 36.8163 40.5916 37.1034C40.7921 37.4685 40.8993 38.5567 40.8816 40.2979L40.8775 40.7009L41.2713 40.6231C42.4924 40.3819 43.4131 40.0253 44.0351 39.5434C44.4299 39.2374 44.8004 38.8419 45.1474 38.3573C45.2483 39.2649 45.4873 39.9782 45.8717 40.497C46.4299 41.2506 47.1468 41.4889 47.9406 41.1646L48.1263 41.0887L48.143 40.8881C48.2099 40.0858 48.3821 39.6633 48.575 39.5909C48.7843 39.5123 48.8651 39.3783 48.9847 39.0749L49.0221 38.9795C49.079 38.8356 49.118 38.7645 49.143 38.7433C49.1382 38.7473 49.1404 38.7506 49.2143 38.7945C49.1941 38.7825 49.2312 38.8394 49.2895 38.9288C49.3178 38.9722 49.351 39.0232 49.3852 39.0778C49.5313 39.3111 49.7334 39.6529 49.9906 40.102L50.088 40.272L50.2832 40.2663C51.3369 40.2357 52.1674 39.9992 52.769 39.5461C53.3587 39.1019 53.9439 38.2849 54.54 37.0921C54.7727 36.6347 54.9781 36.3733 55.1117 36.3138C55.283 36.2376 55.3746 36.3226 55.5767 36.7715C55.5801 36.7791 55.59 36.8014 55.6024 36.8294C55.627 36.8846 55.6613 36.9618 55.6747 36.9912C55.8468 37.3689 55.9725 37.5498 56.2252 37.6235C56.8446 37.8041 57.6405 37.7171 58.6204 37.3766C58.9077 38.4108 59.2045 39.1121 59.528 39.4956C59.9095 39.9481 60.5198 40.1994 61.3414 40.2654L61.4636 40.2519L63.0957 39.7471C63.0476 40.2993 63.0697 40.8685 63.1616 41.4543L63.1875 41.6195L63.3359 41.6955C63.6995 41.8817 63.7855 42.1472 63.7328 42.7147C63.7267 42.7802 63.7202 42.8391 63.7071 42.9509C63.61 43.7782 63.6432 44.11 64.0522 44.4182C64.6523 44.8704 65.4599 44.8704 66.4427 44.4585L66.5219 44.4112C67.1024 43.9411 67.5022 43.7689 67.6695 43.8315C67.849 43.8986 68.0848 44.3223 68.2983 45.1017L68.4378 45.6112L68.8306 45.2595C69.449 44.7058 69.9865 44.8196 70.618 45.6884C71.3858 46.7444 72.7345 47.8447 74.6657 49C74.6657 49 71.8525 46.2739 71.1457 45.3016C70.4215 44.3054 69.5998 44.0127 68.7918 44.479C68.5533 43.7769 68.2705 43.3563 67.8975 43.2168C67.4464 43.048 66.8799 43.2859 66.1491 43.8705C65.3811 44.184 64.8231 44.1789 64.4443 43.8935C64.3055 43.789 64.2876 43.6094 64.3558 43.0277C64.3695 42.9108 64.3765 42.8479 64.3832 42.7756C64.4519 42.0364 64.3147 41.5347 63.7843 41.1976C63.6974 40.5517 63.7049 39.9325 63.8061 39.3391L63.8959 38.8132L61.3322 39.6061C60.7026 39.5466 60.2726 39.3636 60.0265 39.0717C59.7495 38.7433 59.4527 38.0001 59.1594 36.8628L59.0674 36.5059L58.7251 36.6392C57.7086 37.0351 56.9326 37.1467 56.4074 36.9935C56.4105 36.9944 56.4042 36.983 56.3904 36.9584C56.3674 36.9171 56.3235 36.8386 56.2688 36.7183C56.2569 36.6923 56.2252 36.621 56.2009 36.5664C56.1873 36.5358 56.1761 36.5105 56.172 36.5014C55.8368 35.7567 55.485 35.4302 54.8471 35.7141C54.5367 35.8522 54.2545 36.2115 53.9572 36.7958C53.4013 37.908 52.8698 38.6501 52.377 39.0213C51.93 39.358 51.2917 39.5545 50.4578 39.6023C49.9296 38.6847 49.6947 38.3179 49.5473 38.2302C49.2518 38.0544 48.9659 38.0475 48.7388 38.2281C48.5925 38.3444 48.5149 38.4847 48.4149 38.7374L48.3773 38.8334C48.3684 38.856 48.3602 38.8759 48.353 38.8932C48.3247 38.9615 48.3134 38.9888 48.3462 38.9765C47.8714 39.1548 47.6164 39.7097 47.5132 40.6174C47.0899 40.7247 46.7359 40.5647 46.3958 40.1055C45.9717 39.533 45.7489 38.6005 45.7451 37.3075L45.7415 36.0443L45.1327 37.1498C44.6734 37.9838 44.1733 38.6077 43.636 39.024C43.1695 39.3854 42.4694 39.6782 41.5368 39.8954C41.5357 38.2707 41.4197 37.253 41.1637 36.7867C40.8923 36.2922 40.3333 36.0785 39.5209 36.1059C39.7276 35.1723 39.8717 34.4024 39.9531 33.7952C40.0534 33.0478 39.8712 31.9699 39.4152 30.5431C39.3548 30.3538 39.1402 30.2612 38.9616 30.3482C37.6068 31.0084 36.7215 31.0084 36.2339 30.4311C35.6582 29.7494 34.7697 28.1043 33.5882 25.5192C33.53 22.498 33.3249 20.9005 32.8659 20.4878C32.5192 20.176 31.9514 19.8469 31.1563 19.4917C31.4629 18.1461 31.5143 17.1545 31.2823 16.5018C31.2113 16.2701 31.1074 16.0779 30.9694 15.9246C30.5396 15.4471 29.7942 15.1434 28.7859 14.9436C28.3922 14.8656 27.9828 14.8081 27.5127 14.7582C27.458 14.7524 27.3356 14.7405 27.1993 14.7272C26.9759 14.7053 26.7148 14.6798 26.6518 14.6717C26.6238 14.6681 26.6006 14.6646 26.5824 14.6615C25.6613 14.5016 25.0353 14.4561 23.5564 14.3986C22.3806 14.3529 21.9369 14.2933 21.7061 14.1272C21.4854 13.9683 21.3684 13.8286 21.3424 13.6363C21.3363 13.4222 21.4269 13.1425 21.5999 12.7163C21.8177 12.1795 21.8996 11.9086 21.9036 11.5625C21.9045 11.4804 21.8994 11.3997 21.888 11.3202C21.8773 11.2219 21.8571 11.1256 21.8268 11.031C21.4521 9.86188 20.9784 9.83731 21.0656 10.6213C21.0807 10.7985 21.126 11.0207 21.21 11.2838C21.2249 11.3306 21.2355 11.3785 21.2418 11.4279C21.2434 11.452 21.244 11.4765 21.2437 11.5014C21.2411 11.7341 21.1754 11.9505 20.9893 12.4071C20.7666 12.9536 20.6491 13.3624 20.6783 13.7046C20.6902 14.105 20.8875 14.4134 21.3309 14.7338C21.7179 15.0134 22.1913 15.0772 23.5414 15.1299C24.995 15.1867 25.6029 15.231 26.4881 15.3853C26.5166 15.3903 26.5488 15.395 26.5855 15.3998C26.6595 15.4094 26.9461 15.4375 27.1769 15.4602C27.3047 15.4727 27.4153 15.4836 27.4633 15.4887C27.9167 15.5369 28.3089 15.5923 28.6814 15.6664C29.5641 15.842 30.2006 16.1023 30.5109 16.4485C30.841 16.8166 30.4262 19.3802 30.3553 19.8023L30.3421 19.8548L30.3461 19.8565C30.3455 19.8595 30.3453 19.8611 30.3453 19.8611C30.6106 20.9472 30.7013 21.6127 30.5036 21.8488C30.531 21.8161 30.4771 21.8079 30.3145 21.7831C30.2734 21.7768 30.2253 21.7695 30.1697 21.7604C29.7851 21.6976 29.5374 21.6824 29.2547 21.7343L29.2375 21.7376C28.9287 21.7976 28.5458 22.0483 28.0497 22.4908L27.9711 22.5609L27.9476 22.6641C27.7612 23.4815 27.7612 24.0281 28.0083 24.3481C28.1851 24.5772 28.4968 24.8077 28.9491 25.0535C28.7702 26.7139 28.7789 27.9423 28.9821 28.7524C29.1902 29.5823 29.6768 30.2797 30.4307 30.8377C30.4391 31.4103 30.3762 31.7721 30.2764 31.8959C30.1194 32.0907 29.8045 32.3818 29.3381 32.7594L29.209 32.8639L29.2159 33.0306C29.266 34.2348 29.6719 34.9344 30.4624 34.9721C30.4872 35.0505 30.506 35.1783 30.5292 35.4166C30.6231 36.3841 30.6764 36.7227 30.8918 37.3243C31.0271 37.7023 31.4899 38.0336 32.2923 38.3912C33.5618 38.8342 33.6513 39.2212 32.7154 39.9557C32.1643 40.3883 32.1269 40.8491 32.291 42.0673C32.3281 42.3424 32.3453 42.4881 32.3574 42.6501C32.3688 42.8032 32.3719 42.9406 32.366 43.0686C32.3502 43.4116 32.2582 45 32.2582 45C32.3984 44.5645 32.5019 44.2533 32.5805 44.0172C32.7579 43.4836 32.8078 43.3336 32.8659 43C32.8917 42.8515 32.8698 42.6127 32.8443 42.3354C32.7872 41.7141 32.7124 40.8998 33.1176 40.4766C34.442 39.0935 34.2451 38.3736 32.5315 37.7773C31.9143 37.501 31.5605 37.2477 31.5077 37.1002C31.3172 36.5682 31.2694 36.2643 31.1808 35.3523C31.1069 34.5916 31.0069 34.3136 30.5305 34.3136C30.1632 34.3136 29.9374 33.9785 29.8793 33.1668C30.3085 32.8129 30.6086 32.5305 30.7845 32.3123C31.026 32.0127 31.11 31.4712 31.081 30.6522L31.0751 30.4855L30.9385 30.3914C30.2329 29.9055 29.7968 29.3081 29.6169 28.5906C29.4286 27.84 29.4286 26.6058 29.6247 24.9035L29.651 24.6745L29.4469 24.5707C28.9633 24.3249 28.653 24.1086 28.5249 23.9427C28.4464 23.8409 28.442 23.4861 28.5629 22.9153C28.9358 22.5915 29.2126 22.4147 29.3614 22.3857L29.372 22.3837C29.5615 22.349 29.7493 22.3605 30.0651 22.4121C30.6949 22.5149 30.8003 22.5178 31.004 22.2745C31.3286 21.8868 31.3766 21.2129 31.1899 20.2288C31.769 20.5039 32.1838 20.755 32.4301 20.9765C32.68 21.2012 32.8852 22.8237 32.9363 25.5999L32.9659 25.7304Z" fill="url(#paint1_linear_2_135)"/>
</g>
</g>
</g>
<defs>
<linearGradient id="paint0_linear_2_135" x1="126" y1="42" x2="42" y2="-42" gradientUnits="userSpaceOnUse">
<stop stop-color="#253363"/>
<stop offset="1" stop-color="#5A79E8"/>
</linearGradient>
<linearGradient id="paint1_linear_2_135" x1="-15.9378" y1="18.1877" x2="17.8515" y2="75.0237" gradientUnits="userSpaceOnUse">
<stop stop-color="#4C63B2"/>
<stop offset="0.721854" stop-color="white" stop-opacity="0.707796"/>
<stop offset="1" stop-color="white" stop-opacity="0.0971919"/>
</linearGradient>
<clipPath id="clip0_2_135">
<rect width="84" height="84" rx="42" fill="white"/>
</clipPath>
</defs>
</svg>
