<svg width="84" height="84" viewBox="0 0 84 84" fill="none" xmlns="http://www.w3.org/2000/svg">
<g id="Weather / Day / Rainy / 4 ">
<g clip-path="url(#clip0_2_663)">
<circle id="Oval" cx="42" cy="42" r="42" fill="url(#paint0_linear_2_663)"/>
<g id="Path">
<path d="M35.2734 35.115C33.4281 33.5884 30.7617 34.9453 29.3262 33.7148C27.4075 32.0703 26.9717 31.6401 25.2195 31.1909C23.6199 30.7808 22.1716 31.7087 20.6309 29.6543C19.5234 28.1777 18.4789 28.3272 17.1424 28.6553C15.806 28.9834 15.3953 28.6202 13.5967 27.1318C12.4072 26.1475 11.3203 25.7988 8.85939 25.8809C6.78383 25.9501 5.15141 25.4901 3.63416 24.9139C2.17515 28.185 1.11744 31.6729 0.534363 35.3217C6.47835 35.9456 8.26499 35.6744 10.582 36.4219C13.125 37.2422 37.8438 42.2461 38.2814 42C38.7189 41.7539 39.0092 37.8486 39.0092 37.8486C36.5267 37.4 36.4929 36.1238 35.2734 35.115Z" fill="#36B294"/>
<path d="M35.2734 35.115C33.4281 33.5884 30.7617 34.9453 29.3262 33.7148C27.4075 32.0703 26.9717 31.6401 25.2195 31.1909C23.6199 30.7808 22.1716 31.7087 20.6309 29.6543C19.5234 28.1777 18.4789 28.3272 17.1424 28.6553C15.806 28.9834 15.3953 28.6202 13.5967 27.1318C12.4072 26.1475 11.3203 25.7988 8.85939 25.8809C6.78383 25.9501 5.15141 25.4901 3.63416 24.9139C2.17515 28.185 1.11744 31.6729 0.534363 35.3217C6.47835 35.9456 8.26499 35.6744 10.582 36.4219C13.125 37.2422 37.8438 42.2461 38.2814 42C38.7189 41.7539 39.0092 37.8486 39.0092 37.8486C36.5267 37.4 36.4929 36.1238 35.2734 35.115Z" fill="#5D6583" fill-opacity="0.738227"/>
</g>
<g id="Group">
<g id="Path_2">
<path d="M69.3171 45.4482C68.8589 45.4482 68.4879 45.0771 68.4879 44.6196V35.6949C68.4879 35.2373 68.859 34.8662 69.3171 34.8662C69.7753 34.8662 70.1463 35.2373 70.1463 35.6949V44.6196C70.1463 45.0773 69.7753 45.4482 69.3171 45.4482Z" fill="#674447"/>
<path d="M69.3171 45.4482C68.8589 45.4482 68.4879 45.0771 68.4879 44.6196V35.6949C68.4879 35.2373 68.859 34.8662 69.3171 34.8662C69.7753 34.8662 70.1463 35.2373 70.1463 35.6949V44.6196C70.1463 45.0773 69.7753 45.4482 69.3171 45.4482Z" fill="#8588A6" fill-opacity="0.469706"/>
</g>
<g id="Path_3">
<path d="M74.5395 34.9346C74.5395 37.819 72.2013 40.1572 69.3169 40.1572C66.4325 40.1572 64.0943 37.819 64.0943 34.9346C64.0943 32.0502 66.4325 23.1837 69.3169 23.1837C72.2013 23.1838 74.5395 32.0502 74.5395 34.9346Z" fill="#43AB5F"/>
<path d="M74.5395 34.9346C74.5395 37.819 72.2013 40.1572 69.3169 40.1572C66.4325 40.1572 64.0943 37.819 64.0943 34.9346C64.0943 32.0502 66.4325 23.1837 69.3169 23.1837C72.2013 23.1838 74.5395 32.0502 74.5395 34.9346Z" fill="#A0A7C3" fill-opacity="0.398585"/>
</g>
<g id="Path_4">
<path d="M69.3169 23.1837C68.5929 23.1837 67.9033 23.7433 67.2764 24.6259H67.2766C69.9165 24.6259 72.0566 32.7411 72.0566 35.381C72.0566 37.6774 70.4359 39.592 68.2769 40.0524C68.613 40.1203 68.9605 40.1572 69.3167 40.1572C72.2011 40.1572 74.5393 37.819 74.5393 34.9346C74.5395 32.0502 72.2011 23.1837 69.3169 23.1837Z" fill="#71BE63"/>
<path d="M69.3169 23.1837C68.5929 23.1837 67.9033 23.7433 67.2764 24.6259H67.2766C69.9165 24.6259 72.0566 32.7411 72.0566 35.381C72.0566 37.6774 70.4359 39.592 68.2769 40.0524C68.613 40.1203 68.9605 40.1572 69.3167 40.1572C72.2011 40.1572 74.5393 37.819 74.5393 34.9346C74.5395 32.0502 72.2011 23.1837 69.3169 23.1837Z" fill="#A0A7C3" fill-opacity="0.45"/>
</g>
</g>
<path id="Path_5" opacity="0.299991" d="M26.9547 10.6641C26.9547 9.11499 28.2104 7.85925 29.7595 7.85925C29.9933 7.85925 30.2169 7.89617 30.4339 7.95014C31.1658 7.15969 32.2035 6.65717 33.3657 6.65717C35.5786 6.65717 37.3726 8.45119 37.3726 10.6641H26.9547Z" fill="white"/>
<path id="Path_6" d="M43.2925 40.6875C42.1883 40.6875 42.0043 39.5957 41.896 39.375C40.6875 36.9141 39.2246 38.0625 36.8243 38.0625C34.9478 38.0625 34.5642 35.3281 33.5168 35.4375C32.4694 35.5469 30.7821 37.2968 29.3273 36.75C27.2398 35.9651 27.1743 34.7812 25.1377 34.125C23.3405 33.5459 21.821 33.9609 20.948 32.8125C19.2485 30.5763 18.0241 33.0176 15.3618 31.5C12.6543 29.9565 11.8123 32.8125 9.77583 32.8125C7.63629 32.8125 8.37916 30.1875 5.58616 30.1875C4.00395 30.1875 3.07141 32.1169 1.07018 32.6624C0.377836 35.6667 0 38.789 0 42C0 43.6557 0.107953 45.2857 0.296953 46.8912C0.939258 47.4872 1.63373 48.0114 2.33018 48.3105C4.82705 49.3828 57.2578 50.304 57.2578 50.304V45.9375C53.4173 45.9375 53.4173 43.3125 50.2752 43.3125C46.0418 43.3125 46.4346 40.6875 43.2925 40.6875Z" fill="#59928E"/>
<path id="Path_7" d="M17.5547 71.1289L56.4375 50.3038L55.4531 48.1796C46.0384 48.1796 29.7009 38.6091 0 41.9998C0 52.4616 3.83381 62.022 10.1617 69.3746C14.1363 70.3241 17.5547 71.1289 17.5547 71.1289Z" fill="#739A8F"/>
<path id="Path_8" d="M55.4531 48.1797C46.8197 48.1797 32.3563 40.1392 7.11328 41.4182C29.5562 41.4376 43.3194 51.4839 50.3672 51.4839L52.336 50.7496L55.5117 48.3064L55.4531 48.1797Z" fill="#87ADA2"/>
<path id="Path_9" opacity="0.9" d="M37.5142 9.46082C37.8651 9.46082 38.2008 9.51627 38.5268 9.59732C39.6255 8.41065 40.2514 7.65613 42.9282 7.65613C45.605 7.65613 48.0734 9.88534 48.1875 12.3478C48.3016 14.8103 47.3315 15.8049 39 15.8049C33.717 15.8049 33.717 14.1358 33.717 12.3478C33.717 10.5598 35.7301 9.46082 37.5142 9.46082Z" fill="url(#paint1_linear_2_663)"/>
<g id="Path_10">
<path d="M3.71881 59.2731C10.3069 73.8504 24.9634 84 42 84C65.196 84 84 65.196 84 42C84 41.5616 83.9803 41.1281 83.967 40.6931C57.9948 40.8122 46.2174 59.0625 3.71881 59.0625V59.2731Z" fill="#71BE63"/>
<path d="M3.71881 59.2731C10.3069 73.8504 24.9634 84 42 84C65.196 84 84 65.196 84 42C84 41.5616 83.9803 41.1281 83.967 40.6931C57.9948 40.8122 46.2174 59.0625 3.71881 59.0625V59.2731Z" fill="#477468"/>
</g>
<g id="Group_2">
<g id="Path_11">
<path d="M57.2581 50.7495C56.7382 50.7495 56.3171 50.3285 56.3171 49.8092V39.6816C56.3171 39.1624 56.7381 38.7414 57.2581 38.7414C57.7782 38.7414 58.199 39.1624 58.199 39.6816V49.8092C58.199 50.3285 57.7781 50.7495 57.2581 50.7495Z" fill="#674447"/>
<path d="M57.2581 50.7495C56.7382 50.7495 56.3171 50.3285 56.3171 49.8092V39.6816C56.3171 39.1624 56.7381 38.7414 57.2581 38.7414C57.7782 38.7414 58.199 39.1624 58.199 39.6816V49.8092C58.199 50.3285 57.7781 50.7495 57.2581 50.7495Z" fill="#8588A6" fill-opacity="0.469706"/>
</g>
<g id="Path_12">
<path d="M63.1842 38.819C63.1842 42.092 60.5308 44.7454 57.2578 44.7454C53.9847 44.7454 51.3314 42.092 51.3314 38.819C51.3314 35.5459 53.9847 25.4843 57.2578 25.4843C60.5308 25.4843 63.1842 35.5458 63.1842 38.819Z" fill="#43AB5F"/>
<path d="M63.1842 38.819C63.1842 42.092 60.5308 44.7454 57.2578 44.7454C53.9847 44.7454 51.3314 42.092 51.3314 38.819C51.3314 35.5459 53.9847 25.4843 57.2578 25.4843C60.5308 25.4843 63.1842 35.5458 63.1842 38.819Z" fill="#A0A7C3" fill-opacity="0.398585"/>
</g>
<g id="Path_13">
<path d="M57.2578 25.4843C56.4362 25.4843 55.6538 26.1194 54.9424 27.121H54.9425C57.9383 27.121 60.3668 36.3298 60.3668 39.3256C60.3668 41.9314 58.5278 44.1041 56.0777 44.6266C56.4591 44.7037 56.8535 44.7456 57.2576 44.7456C60.5307 44.7456 63.1842 42.0922 63.1842 38.8191C63.1844 35.5458 60.5308 25.4843 57.2578 25.4843Z" fill="#71BE63"/>
<path d="M57.2578 25.4843C56.4362 25.4843 55.6538 26.1194 54.9424 27.121H54.9425C57.9383 27.121 60.3668 36.3298 60.3668 39.3256C60.3668 41.9314 58.5278 44.1041 56.0777 44.6266C56.4591 44.7037 56.8535 44.7456 57.2576 44.7456C60.5307 44.7456 63.1842 42.0922 63.1842 38.8191C63.1844 35.5458 60.5308 25.4843 57.2578 25.4843Z" fill="#A0A7C3" fill-opacity="0.45"/>
</g>
</g>
<path id="Combined Shape" opacity="0.800059" fill-rule="evenodd" clip-rule="evenodd" d="M24.381 0.336592C24.3608 0.172141 24.4778 0.0224589 24.6422 0.00226692C24.8067 -0.0179251 24.9564 0.0990195 24.9766 0.26347L26.1953 10.1889C26.2155 10.3534 26.0985 10.5031 25.9341 10.5233C25.7696 10.5434 25.6199 10.4265 25.5997 10.2621L24.381 0.336592ZM59.1763 2.75527C59.0118 2.77546 58.8949 2.92515 58.9151 3.0896L59.89 11.03C59.9102 11.1944 60.0599 11.3114 60.2244 11.2912C60.3888 11.271 60.5058 11.1213 60.4856 10.9568L59.5106 3.01647C59.4904 2.85202 59.3407 2.73508 59.1763 2.75527ZM60.1197 39.4493C59.9552 39.4695 59.8383 39.6192 59.8585 39.7837L60.8334 47.724C60.8536 47.8885 61.0033 48.0054 61.1677 47.9852C61.3322 47.9651 61.4491 47.8154 61.4289 47.6509L60.454 39.7106C60.4338 39.5461 60.2841 39.4292 60.1197 39.4493ZM31.6664 7.45151C31.6462 7.28706 31.7631 7.13738 31.9276 7.11719C32.092 7.09699 32.2417 7.21394 32.2619 7.37839L32.6275 10.356C32.6477 10.5205 32.5308 10.6702 32.3663 10.6904C32.2019 10.7105 32.0522 10.5936 32.032 10.4291L31.6664 7.45151ZM33.4922 22.3091C33.489 22.157 33.6015 22.0243 33.7556 22.0054C33.9201 21.9852 34.0698 22.1021 34.09 22.2666L34.09 22.2666L34.4556 25.2442C34.4758 25.4087 34.3588 25.5584 34.1944 25.5785C34.0299 25.5987 33.8802 25.4818 33.86 25.3173L33.4944 22.3397C33.4932 22.3294 33.4924 22.3192 33.4922 22.3091ZM37.4117 51.7818C37.2575 51.8007 37.1451 51.9334 37.1483 52.0855C37.1485 52.0956 37.1493 52.1058 37.1505 52.1161L37.5161 55.0937L37.5161 55.0938C37.5363 55.2582 37.686 55.3751 37.8504 55.3549L37.8505 55.3549C38.0149 55.3347 38.1318 55.185 38.1117 55.0206L37.746 52.043C37.7271 51.8888 37.5944 51.7764 37.4424 51.7796C37.4322 51.7798 37.422 51.7805 37.4117 51.7818ZM38.9764 66.9736C38.9732 66.8216 39.0856 66.6889 39.2398 66.67C39.2457 66.6692 39.2517 66.6687 39.2576 66.6683L39.2704 66.6678C39.4224 66.6646 39.5552 66.777 39.5741 66.9312L39.9397 69.9088C39.9599 70.0732 39.8429 70.2229 39.6785 70.2431C39.6729 70.2438 39.6673 70.2443 39.6617 70.2447C39.6571 70.245 39.6525 70.2452 39.6479 70.2453C39.4958 70.2485 39.3631 70.1361 39.3442 69.9819L38.9786 67.0043C38.9773 66.994 38.9766 66.9838 38.9764 66.9736ZM41.0678 81.5582C40.9034 81.5783 40.7864 81.728 40.8066 81.8925L41.1722 84.8701C41.1911 85.0243 41.3239 85.1367 41.4759 85.1335C41.4823 85.1334 41.4888 85.133 41.4952 85.1325L41.5065 85.1313C41.671 85.1111 41.7879 84.9614 41.7677 84.797L41.4021 81.8194C41.3832 81.6652 41.2505 81.5528 41.0984 81.5559C41.0883 81.5562 41.0781 81.5569 41.0678 81.5582ZM57.834 27.1197L57.834 27.1198L58.1996 30.0974C58.2198 30.2619 58.3695 30.3788 58.534 30.3586C58.6984 30.3384 58.8153 30.1887 58.7952 30.0243L58.4296 27.0466C58.427 27.0261 58.4225 27.0063 58.4161 26.9874C58.3717 26.8551 58.2391 26.7678 58.0952 26.7854C57.9308 26.8056 57.8138 26.9553 57.834 27.1197ZM50.0344 23.5968L50.0344 23.5968L50.4 26.5745C50.4202 26.7389 50.5699 26.8559 50.7343 26.8357C50.8988 26.8155 51.0157 26.6658 50.9955 26.5013L50.6299 23.5237C50.6274 23.5031 50.6228 23.4833 50.6165 23.4644C50.5721 23.3322 50.4395 23.2448 50.2956 23.2625C50.1311 23.2827 50.0142 23.4323 50.0344 23.5968ZM36.3958 40.501C36.2416 40.5199 36.1292 40.6527 36.1324 40.8047C36.1326 40.8148 36.1333 40.8251 36.1346 40.8353L36.5002 43.813C36.5204 43.9774 36.67 44.0944 36.8345 44.0742L36.8345 44.0742C36.999 44.054 37.1159 43.9043 37.0957 43.7399L36.7301 40.7622C36.7112 40.608 36.5784 40.4956 36.4264 40.4988C36.4212 40.4989 36.4159 40.4992 36.4107 40.4996C36.4057 40.4999 36.4008 40.5004 36.3958 40.501ZM51.9821 39.4469C51.9789 39.2949 52.0913 39.1622 52.2455 39.1432C52.4099 39.123 52.5596 39.24 52.5798 39.4044L52.9454 42.3821C52.9656 42.5465 52.8487 42.6962 52.6843 42.7164L52.6842 42.7164C52.5198 42.7366 52.3701 42.6196 52.3499 42.4552L51.9843 39.4776C51.983 39.4673 51.9823 39.4571 51.9821 39.4469ZM54.1954 55.024C54.0412 55.0429 53.9288 55.1756 53.932 55.3277C53.9322 55.3378 53.9329 55.348 53.9342 55.3583L54.2998 58.3359C54.32 58.5004 54.4697 58.6173 54.6341 58.5971L54.6342 58.5971C54.7986 58.5769 54.9155 58.4273 54.8953 58.2628L54.5297 55.2852C54.5108 55.131 54.3781 55.0186 54.226 55.0218C54.2159 55.022 54.2057 55.0227 54.1954 55.024ZM55.8819 71.2084C55.8787 71.0564 55.9911 70.9236 56.1453 70.9047C56.3098 70.8845 56.4594 71.0015 56.4796 71.1659L56.8452 74.1436C56.8654 74.308 56.7485 74.4577 56.584 74.4779C56.5738 74.4791 56.5635 74.4799 56.5534 74.4801C56.4014 74.4833 56.2687 74.3708 56.2497 74.2167L55.8841 71.239C55.8834 71.2332 55.8828 71.2273 55.8825 71.2215L55.8819 71.2084ZM79.7839 49.0005L79.7839 49.0005C79.7638 48.836 79.8807 48.6864 80.0451 48.6662L80.0452 48.6662C80.2096 48.646 80.3593 48.763 80.3795 48.9274L80.7451 51.905C80.7627 52.0489 80.6754 52.1815 80.5431 52.2259C80.5242 52.2323 80.5044 52.2368 80.4839 52.2394C80.34 52.257 80.2074 52.1697 80.163 52.0374C80.1566 52.0185 80.1521 51.9987 80.1495 51.9781L79.7839 49.0005ZM47.4294 8.82172C47.4092 8.65727 47.5261 8.50759 47.6906 8.4874C47.855 8.46721 48.0047 8.58415 48.0249 8.7486L48.3905 11.7262C48.4107 11.8907 48.2938 12.0404 48.1293 12.0606C47.9649 12.0808 47.8152 11.9638 47.795 11.7994L47.4294 8.82172ZM45.8801 62.2725C45.8599 62.108 45.9769 61.9583 46.1413 61.9381C46.3058 61.9179 46.4555 62.0349 46.4757 62.1993L46.8413 65.177C46.8615 65.3414 46.7445 65.4911 46.5801 65.5113C46.4156 65.5315 46.2659 65.4146 46.2457 65.2501L45.8801 62.2725ZM65.9529 17.331C65.7884 17.3511 65.6715 17.5008 65.6917 17.6653L66.0573 20.6429C66.0775 20.8074 66.2271 20.9243 66.3916 20.9041C66.5561 20.8839 66.673 20.7342 66.6528 20.5698L66.2872 17.5922C66.267 17.4277 66.1173 17.3108 65.9529 17.331ZM67.9028 33.2117C67.7383 33.2319 67.6214 33.3816 67.6416 33.546L68.0072 36.5237C68.0274 36.6881 68.1771 36.805 68.3415 36.7849C68.506 36.7647 68.6229 36.615 68.6027 36.4505L68.2371 33.4729C68.2169 33.3084 68.0672 33.1915 67.9028 33.2117ZM69.5915 49.4268C69.5713 49.2623 69.6882 49.1126 69.8527 49.0924C70.0171 49.0722 70.1668 49.1892 70.187 49.3536L70.5526 52.3313C70.5728 52.4957 70.4559 52.6454 70.2914 52.6656C70.127 52.6858 69.9773 52.5688 69.9571 52.4044L69.5915 49.4268ZM17.647 9.31608C17.6268 9.15163 17.7437 9.00195 17.9082 8.98176C18.0726 8.96156 18.2223 9.07851 18.2425 9.24296L18.6081 12.2206C18.6283 12.385 18.5114 12.5347 18.3469 12.5549C18.1825 12.5751 18.0328 12.4582 18.0126 12.2937L17.647 9.31608ZM25.6971 32.4353C25.6769 32.2709 25.7938 32.1212 25.9583 32.101C26.1227 32.0808 26.2724 32.1978 26.2926 32.3622L26.6582 35.3399C26.6784 35.5043 26.5615 35.654 26.397 35.6742C26.3867 35.6754 26.3765 35.6762 26.3664 35.6764C26.2144 35.6796 26.0816 35.5672 26.0627 35.413L25.6971 32.4353ZM19.8581 24.8625C19.6937 24.8827 19.5767 25.0324 19.5969 25.1968L19.9625 28.1745C19.9827 28.3389 20.1324 28.4559 20.2968 28.4357C20.4613 28.4155 20.5782 28.2658 20.558 28.1013L20.1924 25.1237C20.1722 24.9592 20.0226 24.8423 19.8581 24.8625ZM21.5468 41.0776C21.5266 40.9131 21.6436 40.7634 21.808 40.7432C21.9725 40.723 22.1222 40.84 22.1423 41.0044L22.5079 43.9821C22.5281 44.1465 22.4112 44.2962 22.2467 44.3164L22.2467 44.3164C22.1028 44.3341 21.9703 44.2467 21.9258 44.1145C21.9195 44.0956 21.9149 44.0758 21.9124 44.0552L21.5468 41.0776ZM23.7579 56.624C23.5935 56.6442 23.4765 56.7938 23.4967 56.9583L23.8623 59.9359C23.8649 59.9565 23.8694 59.9763 23.8757 59.9952C23.9202 60.1275 24.0527 60.2148 24.1966 60.1971L24.1967 60.1971C24.3611 60.1769 24.4781 60.0273 24.4579 59.8628L24.0923 56.8852C24.0721 56.7207 23.9224 56.6038 23.7579 56.624ZM27.3965 22.7198C27.3764 22.5553 27.4933 22.4056 27.6577 22.3854C27.8222 22.3653 27.9719 22.4822 27.9921 22.6467L28.3577 25.6243C28.3779 25.7887 28.2609 25.9384 28.0965 25.9586C28.0862 25.9599 28.076 25.9606 28.0658 25.9608C27.9138 25.964 27.7811 25.8516 27.7622 25.6974L27.3965 22.7198ZM41.6077 44.2662C41.4535 44.2851 41.3411 44.4179 41.3443 44.5699L41.3447 44.5812C41.3451 44.5876 41.3457 44.594 41.3465 44.6005L41.7121 47.5782C41.731 47.7323 41.8637 47.8447 42.0158 47.8416C42.0259 47.8413 42.0361 47.8406 42.0464 47.8394C42.2108 47.8192 42.3278 47.6695 42.3076 47.505L41.942 44.5274L41.942 44.5274C41.9218 44.3629 41.7721 44.246 41.6077 44.2662ZM26.4967 67.9583C26.4765 67.7938 26.5935 67.6442 26.7579 67.624C26.9224 67.6038 27.0721 67.7207 27.0923 67.8852L27.4579 70.8628C27.4781 71.0273 27.3611 71.1769 27.1967 71.1971C27.0322 71.2173 26.8825 71.1004 26.8623 70.9359L26.4967 67.9583ZM11.7579 64.624C11.5935 64.6442 11.4765 64.7938 11.4967 64.9583L11.8623 67.9359C11.8825 68.1004 12.0322 68.2173 12.1967 68.1971C12.3611 68.1769 12.4781 68.0273 12.4579 67.8628L12.0923 64.8852C12.0721 64.7207 11.9224 64.6038 11.7579 64.624ZM51.4967 80.9583C51.4765 80.7938 51.5935 80.6442 51.7579 80.624C51.9224 80.6038 52.0721 80.7207 52.0923 80.8852L52.4579 83.8628C52.4781 84.0273 52.3611 84.1769 52.1967 84.1971C52.0322 84.2173 51.8825 84.1004 51.8623 83.9359L51.4967 80.9583ZM30.7579 80.624C30.5935 80.6442 30.4765 80.7938 30.4967 80.9583L30.8623 83.9359C30.8825 84.1004 31.0322 84.2173 31.1967 84.1971C31.3611 84.1769 31.4781 84.0273 31.4579 83.8628L31.0923 80.8852C31.0721 80.7207 30.9224 80.6038 30.7579 80.624ZM47.4967 48.9583C47.4765 48.7938 47.5935 48.6442 47.7579 48.624C47.9224 48.6038 48.0721 48.7207 48.0923 48.8852L48.4579 51.8628C48.4781 52.0273 48.3611 52.1769 48.1967 52.1971C48.0322 52.2173 47.8825 52.1004 47.8623 51.9359L47.4967 48.9583ZM67.7579 68.624C67.5935 68.6442 67.4765 68.7938 67.4967 68.9583L67.8623 71.9359C67.8825 72.1004 68.0322 72.2173 68.1967 72.1971C68.3611 72.1769 68.4781 72.0273 68.4579 71.8628L68.0923 68.8852C68.0721 68.7207 67.9224 68.6038 67.7579 68.624ZM76.4967 63.9583C76.4765 63.7938 76.5935 63.6442 76.7579 63.624C76.9224 63.6038 77.0721 63.7207 77.0923 63.8852L77.4579 66.8628C77.4781 67.0273 77.3611 67.1769 77.1967 67.1971C77.0322 67.2173 76.8825 67.1004 76.8623 66.9359L76.4967 63.9583ZM66.7579 58.624C66.5935 58.6442 66.4765 58.7938 66.4967 58.9583L66.8623 61.9359C66.8825 62.1004 67.0322 62.2173 67.1967 62.1971C67.3611 62.1769 67.4781 62.0273 67.4579 61.8628L67.0923 58.8852C67.0721 58.7207 66.9224 58.6038 66.7579 58.624ZM6.49672 58.9583C6.47653 58.7938 6.59348 58.6442 6.75793 58.624C6.92238 58.6038 7.07206 58.7207 7.09225 58.8852L7.45786 61.8628C7.47805 62.0273 7.36111 62.1769 7.19666 62.1971C7.03221 62.2173 6.88252 62.1004 6.86233 61.9359L6.49672 58.9583ZM15.7579 50.624C15.5935 50.6442 15.4765 50.7938 15.4967 50.9583L15.8623 53.9359C15.8825 54.1004 16.0322 54.2173 16.1967 54.1971C16.3611 54.1769 16.4781 54.0273 16.4579 53.8628L16.0923 50.8852C16.0721 50.7207 15.9224 50.6038 15.7579 50.624ZM19.4967 71.9583C19.4765 71.7938 19.5935 71.6442 19.7579 71.624C19.9224 71.6038 20.0721 71.7207 20.0923 71.8852L20.6878 75.4199C20.708 75.5844 20.591 75.734 20.4266 75.7542C20.2621 75.7744 20.1124 75.6575 20.0923 75.493L19.4967 71.9583ZM6.68696 24.4928C6.66677 24.3284 6.78371 24.1787 6.94816 24.1585C7.11261 24.1383 7.26229 24.2552 7.28249 24.4197L7.89183 29.3824C7.91202 29.5469 7.79508 29.6966 7.63063 29.7168C7.46618 29.7369 7.3165 29.62 7.2963 29.4556L6.68696 24.4928ZM8.75874 41.3661C8.73854 41.2017 8.85549 41.052 9.01994 41.0318C9.03022 41.0305 9.04044 41.0298 9.05057 41.0296C9.20259 41.0264 9.33533 41.1388 9.35426 41.293L9.96361 46.2557C9.9838 46.4202 9.86686 46.5698 9.70241 46.59C9.53796 46.6102 9.38828 46.4933 9.36808 46.3288L8.75874 41.3661ZM13.1635 74.7784C12.999 74.7985 12.8821 74.9482 12.9023 75.1127L13.5116 80.0754C13.5318 80.2399 13.6815 80.3568 13.846 80.3366C13.8665 80.3341 13.8863 80.3295 13.9052 80.3232C14.0375 80.2788 14.1248 80.1462 14.1072 80.0023L13.4978 75.0396C13.4776 74.8751 13.328 74.7582 13.1636 74.7783L13.1635 74.7784ZM29.0459 48.8592C29.0282 48.7154 29.1155 48.5828 29.2478 48.5383C29.2667 48.532 29.2865 48.5274 29.3071 48.5249C29.4715 48.5047 29.6212 48.6217 29.6414 48.7861L30.2507 53.7489C30.2684 53.8927 30.1811 54.0253 30.0488 54.0698C30.0299 54.0761 30.0101 54.0807 29.9895 54.0832C29.8251 54.1034 29.6754 53.9864 29.6552 53.822L29.0459 48.8592ZM0.758737 48.3661C0.738545 48.2017 0.855489 48.052 1.01994 48.0318C1.18439 48.0116 1.33407 48.1285 1.35426 48.293L1.96361 53.2557C1.9838 53.4202 1.86686 53.5698 1.70241 53.59C1.53796 53.6102 1.38828 53.4933 1.36808 53.3288L0.758737 48.3661ZM2.66968 36.0461C2.50523 36.0662 2.38828 36.2159 2.40847 36.3804L2.89595 40.3506C2.91614 40.515 3.06583 40.632 3.23028 40.6118C3.39473 40.5916 3.51167 40.4419 3.49148 40.2774L3.004 36.3073C2.98381 36.1428 2.83413 36.0259 2.66968 36.0461ZM69.9973 23.7212C69.9771 23.5568 70.0941 23.4071 70.2585 23.3869C70.423 23.3667 70.5727 23.4837 70.5929 23.6481L70.7147 24.6406C70.7349 24.8051 70.618 24.9548 70.4535 24.975C70.2891 24.9952 70.1394 24.8782 70.1192 24.7138L69.9973 23.7212ZM72.3129 42.5796C72.2927 42.4151 72.4096 42.2655 72.5741 42.2453C72.7385 42.2251 72.8882 42.342 72.9084 42.5065L73.0303 43.499C73.0504 43.6635 72.9335 43.8132 72.769 43.8334C72.6046 43.8535 72.4549 43.7366 72.4347 43.5721L72.3129 42.5796ZM40.2585 11.3869C40.0941 11.4071 39.9771 11.5568 39.9973 11.7212L40.1192 12.7138C40.1394 12.8782 40.2891 12.9952 40.4535 12.975C40.618 12.9548 40.7349 12.8051 40.7147 12.6406L40.5929 11.6481C40.5727 11.4837 40.423 11.3667 40.2585 11.3869ZM42.5741 30.2453C42.4096 30.2655 42.2927 30.4151 42.3129 30.5796L42.4347 31.5721C42.4549 31.7366 42.6046 31.8535 42.769 31.8333C42.9335 31.8132 43.0504 31.6635 43.0303 31.499L42.9084 30.5065C42.8882 30.342 42.7385 30.2251 42.5741 30.2453ZM9.81726 14.0642C9.65281 14.0844 9.53587 14.2341 9.55606 14.3985L10.7748 24.324C10.7949 24.4884 10.9446 24.6054 11.1091 24.5852C11.2735 24.565 11.3905 24.4153 11.3703 24.2509L10.1516 14.3254C10.1314 14.1609 9.98171 14.044 9.81726 14.0642ZM45.992 35.9819C45.8276 36.0021 45.7106 36.1518 45.7308 36.3162L46.0964 39.2939C46.1166 39.4583 46.2663 39.5753 46.4308 39.5551C46.5952 39.5349 46.7121 39.3852 46.692 39.2208L46.3263 36.2431C46.3062 36.0787 46.1565 35.9617 45.992 35.9819ZM55.9004 13.3497C55.8802 13.1853 55.9971 13.0356 56.1616 13.0154C56.326 12.9952 56.4757 13.1121 56.4959 13.2766L56.8615 16.2542C56.8817 16.4187 56.7647 16.5684 56.6003 16.5886C56.4358 16.6087 56.2862 16.4918 56.266 16.3273L55.9004 13.3497ZM75.3038 14.8217C75.2836 14.6573 75.4006 14.5076 75.565 14.4874C75.7295 14.4672 75.8792 14.5842 75.8994 14.7486L76.5087 19.7113C76.5289 19.8758 76.4119 20.0255 76.2475 20.0457C76.083 20.0659 75.9334 19.9489 75.9132 19.7845L75.3038 14.8217ZM77.3756 31.695C77.3554 31.5306 77.4724 31.3809 77.6368 31.3607C77.8013 31.3405 77.9509 31.4574 77.9711 31.6219L78.5805 36.5846C78.6007 36.7491 78.4837 36.8988 78.3193 36.9189C78.1548 36.9391 78.0051 36.8222 77.9849 36.6577L77.3756 31.695ZM81.7804 65.1073C81.6159 65.1274 81.499 65.2771 81.5192 65.4416L82.1285 70.4043C82.1487 70.5688 82.2984 70.6857 82.4628 70.6655C82.6273 70.6453 82.7442 70.4956 82.724 70.3312L82.1147 65.3685C82.0945 65.204 81.9448 65.0871 81.7804 65.1073ZM63.5909 79.3149C63.5707 79.1504 63.6877 79.0007 63.8521 78.9805C64.0166 78.9604 64.1663 79.0773 64.1865 79.2417L64.7958 84.2045C64.816 84.3689 64.6991 84.5186 64.5346 84.5388C64.3702 84.559 64.2205 84.442 64.2003 84.2776L63.5909 79.3149Z" fill="url(#paint2_linear_2_663)"/>
<path id="Oval 4" opacity="0.9" d="M21.7952 20.8985H28.6975C30.8238 20.8985 32.5475 19.1681 32.5475 17.0336C32.5475 14.8991 30.8238 13.1688 28.6975 13.1688C28.0558 13.1688 27.4508 13.3263 26.9188 13.605C26.178 11.4481 24.1381 9.8985 21.7377 9.8985C18.7118 9.8985 16.2588 12.3609 16.2588 15.3985C16.2588 15.4608 16.2598 15.5228 16.2619 15.5845C15.3786 16.0609 14.778 16.9971 14.778 18.0742C14.778 19.634 16.0377 20.8985 17.5915 20.8985H21.7377C21.7464 20.8985 21.7952 20.8985 21.7952 20.8985H21.7377H21.7952Z" fill="url(#paint3_linear_2_663)"/>
</g>
</g>
<defs>
<linearGradient id="paint0_linear_2_663" x1="110.083" y1="70.9584" x2="84" y2="-13.0416" gradientUnits="userSpaceOnUse">
<stop stop-color="#A098C5"/>
<stop offset="1" stop-color="#A0A7C3"/>
</linearGradient>
<linearGradient id="paint1_linear_2_663" x1="37.8537" y1="0.322252" x2="28.668" y2="18.6957" gradientUnits="userSpaceOnUse">
<stop stop-color="white"/>
<stop offset="1" stop-color="white" stop-opacity="0.01"/>
</linearGradient>
<linearGradient id="paint2_linear_2_663" x1="18.3598" y1="0.593732" x2="24.0273" y2="49.1141" gradientUnits="userSpaceOnUse">
<stop stop-color="#BAC1F7"/>
<stop offset="1" stop-color="#F1F1F1" stop-opacity="0.501584"/>
</linearGradient>
<linearGradient id="paint3_linear_2_663" x1="18.0564" y1="-12.4887" x2="35.5129" y2="19.2685" gradientUnits="userSpaceOnUse">
<stop stop-color="white"/>
<stop offset="1" stop-color="white" stop-opacity="0.01"/>
</linearGradient>
<clipPath id="clip0_2_663">
<rect width="84" height="84" rx="42" fill="white"/>
</clipPath>
</defs>
</svg>
